<?xml version="1.0" encoding="utf-8"?>
<!-- Generator: Adobe Illustrator 23.0.0, SVG Export Plug-In . SVG Version: 6.00 Build 0)  -->
<svg version="1.1" xmlns="http://www.w3.org/2000/svg" xmlns:xlink="http://www.w3.org/1999/xlink" x="0px" y="0px"
	 viewBox="0 0 1024 1024" style="enable-background:new 0 0 1024 1024;" xml:space="preserve">
<style type="text/css">
	.st0{fill:#FFFFFF;}
	.st1{fill:#0A0A0A;}
	.st2{fill:#E8740C;}
	.st3{fill:#2B2A2A;}
	.st4{fill:#21201F;}
	.st5{fill:#C95D0D;}
	.st6{fill:#2D2D2D;}
	.st7{fill:#353534;}
	.st8{fill:#595958;}
	.st9{fill:#333333;}
	.st10{fill:#D86A0F;}
	.st11{fill:#CE6211;}
	.st12{fill:#9B4216;}
	.st13{fill:#BC530C;}
	.st14{fill:#FF991F;}
	.st15{fill:#7C7C7C;}
	.st16{fill:#898989;}
	.st17{fill:#686665;}
	.st18{fill:#595959;}
	.st19{fill:#9B9997;}
	.st20{fill:#BC560F;}
	.st21{fill:#E06E10;}
	.st22{fill:#0F0E0E;}
	.st23{fill:none;stroke:#D35E0D;stroke-width:2;stroke-miterlimit:10;}
	.st24{fill:none;stroke:#0C0B0B;stroke-miterlimit:10;}
	.st25{fill:none;stroke:#0C0B0B;stroke-width:2;stroke-linecap:round;stroke-miterlimit:10;}
	.st26{fill:none;stroke:#0C0B0B;stroke-linecap:round;stroke-miterlimit:10;}
	.st27{fill:#0C0B0B;}
	.st28{fill:none;stroke:#F78131;stroke-linecap:round;stroke-miterlimit:10;}
	.st29{fill:#EF8322;}
	.st30{fill:#9B4308;}
	.st31{fill:#EF972E;}
	.st32{fill:#FF8939;}
	.st33{fill:none;stroke:#9B4308;stroke-linecap:round;stroke-miterlimit:10;}
	.st34{fill:#636363;stroke:#0C0B0B;stroke-linecap:round;stroke-miterlimit:10;}
	.st35{fill:#0F0E0E;stroke:#444242;stroke-linecap:round;stroke-miterlimit:10;}
	.st36{fill:#191212;}
	.st37{fill:#706D6D;}
	.st38{fill:#91420C;}
	.st39{fill:#D80909;stroke:#FF3E3E;stroke-linecap:round;stroke-miterlimit:10;}
	.st40{fill:none;stroke:#FF4848;stroke-width:3;stroke-linecap:round;stroke-miterlimit:10;}
	.st41{fill:#0C0C0B;}
	.st42{fill:#6D6A6A;}
	.st43{fill:#595857;}
	.st44{fill:#7F3808;}
	.st45{fill:#232323;stroke:#0A0A0A;stroke-width:2;stroke-miterlimit:10;}
	.st46{fill:#5B5B5B;stroke:#A8A8A8;stroke-width:2;stroke-miterlimit:10;}
	.st47{fill:#1E1E1E;}
	.st48{fill:#969696;}
	.st49{fill:none;stroke:#D6D6D6;stroke-miterlimit:10;}
	.st50{fill:#383838;}
	.st51{fill:#EFEFEF;}
	.st52{fill:#A09E9D;stroke:#BABABA;stroke-miterlimit:10;}
	.st53{fill:#CCCBCA;}
	.st54{fill:#282828;}
	.st55{fill:#ADADAD;}
	.st56{fill:none;stroke:#C6C6C6;stroke-width:3;stroke-miterlimit:10;}
	.st57{fill:#F2F2F2;}
	.st58{fill:#111111;}
	.st59{fill:#707070;}
	.st60{fill:#6B6B6B;}
	.st61{fill:#994507;}
	.st62{fill:#844012;}
	.st63{fill:#0F0D0D;}
	.st64{opacity:0.1;fill:#FCF6F0;}
	.st65{opacity:0.2;fill:#FCF6F0;}
</style>
<g id="Layer_2">
	<rect y="954" width="1024" height="70"/>
	<g>
		<path class="st0" d="M314.4,974.25h4.52c3.56,0,6.49,0.94,8.79,2.81c2.32,1.86,3.48,4.53,3.48,8.01c0,3.58-1.15,6.32-3.45,8.21
			c-2.3,1.9-5.27,2.84-8.9,2.84h-4.44V974.25z M317.12,993.63h0.95c1.42,0,2.75-0.15,4.01-0.43c1.25-0.28,2.35-0.76,3.29-1.42
			c0.94-0.66,1.69-1.54,2.25-2.61c0.56-1.08,0.84-2.41,0.84-3.99c0-1.56-0.28-2.89-0.83-4.02c-0.55-1.11-1.32-1.98-2.3-2.6
			c-0.99-0.63-2.07-1.1-3.27-1.39c-1.19-0.29-2.51-0.44-3.99-0.44h-0.95V993.63z"/>
		<path class="st0" d="M335.2,989.76c0.04,1.21,0.43,2.27,1.16,3.17c0.76,0.89,1.73,1.33,2.93,1.33c0.95,0,1.73-0.21,2.34-0.65
			c0.61-0.43,1.19-1.1,1.73-1.99l2.2,1.25c-0.64,1.16-1.51,2.06-2.63,2.72c-1.11,0.65-2.34,0.99-3.67,0.99
			c-2.02,0-3.65-0.68-4.87-2.03c-1.2-1.38-1.8-3.08-1.8-5.11c0-2.14,0.57-3.91,1.71-5.29c1.12-1.35,2.75-2.03,4.9-2.03
			c2.09,0,3.66,0.68,4.73,2.03c1.08,1.35,1.62,3.08,1.62,5.2v0.4H335.2z M342.95,987.79c-0.16-1.04-0.55-1.88-1.2-2.48
			c-0.65-0.6-1.49-0.92-2.54-0.92c-0.5,0-0.97,0.09-1.4,0.26c-0.44,0.16-0.82,0.4-1.17,0.7c-0.33,0.32-0.61,0.69-0.83,1.1
			c-0.22,0.41-0.37,0.87-0.45,1.35H342.95z"/>
		<path class="st0" d="M353.25,985.65c-0.39-0.8-0.97-1.19-1.74-1.19c-0.36,0-0.7,0.12-0.99,0.39c-0.29,0.26-0.43,0.59-0.43,0.95
			c0,0.35,0.11,0.64,0.33,0.88c0.22,0.24,0.52,0.47,0.91,0.69c0.26,0.11,0.45,0.21,0.58,0.27c0.13,0.07,0.36,0.17,0.67,0.31
			c0.15,0.08,0.29,0.15,0.41,0.18c0.11,0.04,0.2,0.07,0.25,0.12c0.97,0.44,1.73,0.96,2.29,1.53c0.56,0.59,0.84,1.36,0.84,2.33
			c0,1.28-0.46,2.35-1.39,3.22c-0.91,0.86-2,1.28-3.28,1.28c-0.52,0-1.02-0.08-1.5-0.22c-0.49-0.14-0.94-0.35-1.35-0.61
			c-0.42-0.27-0.78-0.58-1.11-0.95c-0.31-0.38-0.57-0.8-0.73-1.27l2.23-1.01c0.63,1.16,1.46,1.74,2.46,1.74
			c0.41,0,0.79-0.11,1.14-0.33c0.35-0.22,0.6-0.51,0.77-0.85c0.16-0.34,0.2-0.7,0.1-1.1c-0.1-0.4-0.4-0.78-0.9-1.12l-2.56-1.37
			c-0.45-0.23-0.83-0.45-1.16-0.69c-0.33-0.24-0.6-0.49-0.81-0.75c-0.21-0.27-0.37-0.55-0.48-0.87c-0.11-0.32-0.16-0.69-0.16-1.13
			c0-1.1,0.39-2.02,1.17-2.78c0.77-0.77,1.72-1.16,2.84-1.16c1.7,0,2.94,0.8,3.71,2.38L353.25,985.65z"/>
		<path class="st0" d="M362.62,976.33c0,0.49-0.17,0.9-0.53,1.26c-0.34,0.34-0.77,0.5-1.27,0.5c-0.51,0-0.93-0.16-1.28-0.5
			c-0.35-0.36-0.52-0.77-0.52-1.26c0-0.5,0.17-0.93,0.52-1.3c0.35-0.36,0.77-0.53,1.28-0.53c0.5,0,0.93,0.17,1.27,0.53
			C362.45,975.4,362.62,975.83,362.62,976.33z M362.12,996.12h-2.61v-13.58h2.61V996.12z"/>
		<path class="st0" d="M379.02,995.86c0,2.55-0.49,4.52-1.46,5.94c-0.96,1.4-2.69,2.09-5.16,2.09c-1.91,0-3.48-0.55-4.7-1.66
			c-1.2-1.1-1.82-2.6-1.86-4.49h2.61c0,1.21,0.38,2.15,1.12,2.83c0.74,0.67,1.73,1,2.95,1c1.49,0,2.51-0.44,3.06-1.31
			c0.55-0.87,0.82-2.1,0.82-3.68V994h-0.05c-0.55,0.82-1.21,1.45-2.02,1.9c-0.81,0.46-1.67,0.69-2.6,0.69
			c-2.01,0-3.6-0.71-4.76-2.12c-1.16-1.41-1.74-3.16-1.74-5.22c0-1.96,0.59-3.62,1.77-4.99c1.19-1.41,2.72-2.12,4.61-2.12
			c2,0,3.57,0.91,4.73,2.73h0.05v-2.33h2.62V995.86z M372.14,994.26c1.37,0,2.44-0.47,3.22-1.42c0.79-0.96,1.19-2.14,1.19-3.51
			c0-1.35-0.39-2.5-1.19-3.46c-0.77-0.94-1.85-1.41-3.22-1.41c-1.3,0-2.34,0.47-3.14,1.45c-0.77,0.95-1.16,2.08-1.16,3.42
			c0,1.37,0.39,2.54,1.16,3.48C369.8,993.78,370.84,994.26,372.14,994.26z"/>
		<path class="st0" d="M385.03,984.36h0.05c0.39-0.71,0.96-1.27,1.69-1.65c0.73-0.39,1.54-0.58,2.41-0.58c0.89,0,1.64,0.14,2.26,0.4
			c0.62,0.27,1.12,0.66,1.5,1.16c0.38,0.5,0.65,1.12,0.81,1.84c0.17,0.73,0.25,1.55,0.25,2.49v8.09h-2.6v-7.77
			c0-1.34-0.2-2.31-0.59-2.93c-0.39-0.64-1.19-0.95-2.41-0.95c-0.45,0-0.82,0.04-1.13,0.12c-0.31,0.09-0.58,0.22-0.81,0.37
			c-0.23,0.17-0.42,0.37-0.58,0.57c-0.15,0.21-0.3,0.45-0.43,0.71c-0.06,0.13-0.12,0.3-0.16,0.52c-0.05,0.21-0.09,0.43-0.13,0.66
			c-0.04,0.22-0.08,0.44-0.09,0.66c-0.02,0.23-0.02,0.4-0.02,0.54v1.28v6.23h-2.62v-13.58h2.62V984.36z"/>
		<path class="st0" d="M405.77,970.93h2.61v13.87h0.05c1.2-1.77,2.78-2.67,4.73-2.67c1.9,0,3.43,0.71,4.62,2.12
			c1.18,1.37,1.77,3.03,1.77,4.99c0,2.06-0.59,3.81-1.74,5.22c-1.17,1.41-2.75,2.12-4.76,2.12c-0.93,0-1.8-0.23-2.6-0.69
			c-0.8-0.45-1.47-1.09-2.02-1.9h-0.05v2.12h-2.61V970.93z M412.52,994.26c1.38,0,2.45-0.47,3.23-1.42
			c0.79-0.96,1.18-2.14,1.18-3.51c0-1.35-0.39-2.5-1.18-3.46c-0.78-0.94-1.85-1.41-3.23-1.41c-1.3,0-2.34,0.47-3.13,1.45
			c-0.78,0.95-1.16,2.08-1.16,3.42c0,1.37,0.38,2.54,1.16,3.48C410.18,993.78,411.23,994.26,412.52,994.26z"/>
		<path class="st0" d="M419.93,982.54h3.04l4.58,8.62l4.26-8.62h2.94l-11,21.36h-2.96l5.34-10.1L419.93,982.54z"/>
		<path class="st0" d="M447.93,990.63l-2.5,5.49h-2.93l10.45-22.81l10.44,22.81h-2.92l-2.49-5.49H447.93z M452.95,979.29l-3.9,8.85
			h7.78L452.95,979.29z"/>
		<path class="st0" d="M467.66,996.12h-2.61v-25.19h2.61V996.12z"/>
		<path class="st0" d="M474.1,996.12h-2.61v-25.19h2.61V996.12z"/>
		<path class="st0" d="M484.02,985.74v2.17h-6.36v-2.17H484.02z"/>
		<path class="st0" d="M494.17,973.57c-0.81-0.37-1.38-0.55-1.73-0.55c-0.57,0-0.97,0.17-1.22,0.53c-0.26,0.36-0.43,0.79-0.52,1.32
			c-0.06,0.38-0.09,0.69-0.11,0.91c0,0.23,0,0.53,0,0.92v5.82h3.58v2.44h-3.58v11.15h-2.62v-11.15h-1.18v-2.44h1.18v-6.61
			c0-3.56,1.47-5.35,4.39-5.35c0.64,0,1.24,0.13,1.81,0.35V973.57z"/>
		<path class="st0" d="M498.2,984.74h0.09c0.33-0.81,0.81-1.45,1.46-1.91c0.64-0.46,1.39-0.7,2.26-0.7c0.72,0,1.43,0.22,2.16,0.67
			l-1.19,2.38c-0.43-0.38-0.96-0.55-1.6-0.55c-1.35,0-2.23,0.54-2.67,1.62c-0.2,0.5-0.33,1-0.39,1.49c-0.06,0.48-0.11,1.06-0.11,1.7
			v6.67h-2.6v-13.58h2.6V984.74z"/>
		<path class="st0" d="M507.18,989.76c0.03,1.21,0.42,2.27,1.16,3.17c0.75,0.89,1.72,1.33,2.92,1.33c0.94,0,1.73-0.21,2.34-0.65
			c0.61-0.43,1.19-1.1,1.72-1.99l2.2,1.25c-0.63,1.16-1.51,2.06-2.62,2.72c-1.11,0.65-2.34,0.99-3.67,0.99
			c-2.03,0-3.65-0.68-4.87-2.03c-1.2-1.38-1.8-3.08-1.8-5.11c0-2.14,0.57-3.91,1.71-5.29c1.12-1.35,2.75-2.03,4.9-2.03
			c2.09,0,3.67,0.68,4.74,2.03c1.07,1.35,1.61,3.08,1.61,5.2v0.4H507.18z M514.93,987.79c-0.16-1.04-0.56-1.88-1.2-2.48
			c-0.65-0.6-1.49-0.92-2.54-0.92c-0.5,0-0.97,0.09-1.41,0.26c-0.43,0.16-0.82,0.4-1.15,0.7c-0.34,0.32-0.63,0.69-0.86,1.1
			c-0.22,0.41-0.37,0.87-0.44,1.35H514.93z"/>
		<path class="st0" d="M521.35,989.76c0.03,1.21,0.42,2.27,1.15,3.17c0.75,0.89,1.73,1.33,2.93,1.33c0.95,0,1.73-0.21,2.33-0.65
			c0.61-0.43,1.18-1.1,1.73-1.99l2.2,1.25c-0.63,1.16-1.49,2.06-2.62,2.72c-1.12,0.65-2.33,0.99-3.67,0.99
			c-2.04,0-3.66-0.68-4.88-2.03c-1.19-1.38-1.79-3.08-1.79-5.11c0-2.14,0.56-3.91,1.71-5.29c1.12-1.35,2.76-2.03,4.9-2.03
			c2.08,0,3.66,0.68,4.72,2.03c1.09,1.35,1.63,3.08,1.63,5.2v0.4H521.35z M529.09,987.79c-0.15-1.04-0.56-1.88-1.22-2.48
			c-0.64-0.6-1.48-0.92-2.53-0.92c-0.51,0-0.97,0.09-1.41,0.26c-0.43,0.16-0.81,0.4-1.15,0.7c-0.34,0.32-0.63,0.69-0.84,1.1
			c-0.23,0.41-0.38,0.87-0.46,1.35H529.09z"/>
		<path class="st0" d="M540.14,985.74v2.17h-6.36v-2.17H540.14z"/>
		<path class="st0" d="M553.69,994h-0.06c-0.54,0.82-1.21,1.45-2.01,1.9c-0.81,0.46-1.68,0.69-2.6,0.69c-2.01,0-3.6-0.71-4.75-2.12
			c-1.17-1.41-1.75-3.16-1.75-5.22c0-1.96,0.59-3.62,1.78-4.99c1.18-1.41,2.72-2.12,4.61-2.12c1.95,0,3.53,0.89,4.73,2.67h0.06
			v-13.87h2.6v25.19h-2.6V994z M549.42,994.26c1.37,0,2.45-0.47,3.22-1.42c0.79-0.96,1.2-2.14,1.2-3.51c0-1.35-0.4-2.5-1.2-3.46
			c-0.77-0.94-1.85-1.41-3.22-1.41c-1.3,0-2.34,0.47-3.13,1.45c-0.77,0.95-1.16,2.08-1.16,3.42c0,1.37,0.39,2.54,1.16,3.48
			C547.08,993.78,548.13,994.26,549.42,994.26z"/>
		<path class="st0" d="M560.57,984.22c1.41-1.39,3.14-2.09,5.17-2.09c2.03,0,3.74,0.7,5.12,2.09c1.42,1.38,2.12,3.12,2.12,5.14
			c0,2.03-0.7,3.74-2.12,5.15c-1.38,1.38-3.09,2.08-5.12,2.08c-2.04,0-3.76-0.7-5.17-2.08c-1.39-1.41-2.09-3.12-2.09-5.15
			C558.47,987.34,559.17,985.6,560.57,984.22z M561.08,989.36c0,1.25,0.47,2.36,1.38,3.32c0.89,0.95,1.99,1.4,3.28,1.4
			c1.27,0,2.37-0.46,3.27-1.4c0.91-0.96,1.36-2.07,1.36-3.32c0-1.28-0.45-2.4-1.36-3.34c-0.9-0.93-2-1.39-3.27-1.39
			c-1.29,0-2.4,0.46-3.28,1.39C561.55,986.96,561.08,988.08,561.08,989.36z"/>
		<path class="st0" d="M580.01,991.19l3.99-9.41l3.98,9.41l3.95-8.66h2.95l-6.9,14.05l-3.98-9.08l-3.99,9.08l-6.91-14.05h2.96
			L580.01,991.19z"/>
		<path class="st0" d="M598.81,984.36h0.06c0.38-0.71,0.94-1.27,1.68-1.65c0.74-0.39,1.54-0.58,2.41-0.58c0.89,0,1.65,0.14,2.27,0.4
			c0.62,0.27,1.11,0.66,1.49,1.16c0.38,0.5,0.65,1.12,0.8,1.84c0.17,0.73,0.25,1.55,0.25,2.49v8.09h-2.61v-7.77
			c0-1.34-0.18-2.31-0.58-2.93c-0.39-0.64-1.18-0.95-2.42-0.95c-0.44,0-0.81,0.04-1.13,0.12c-0.3,0.09-0.58,0.22-0.81,0.37
			c-0.23,0.17-0.42,0.37-0.58,0.57c-0.16,0.21-0.3,0.45-0.43,0.71c-0.06,0.13-0.12,0.3-0.16,0.52c-0.05,0.21-0.1,0.43-0.13,0.66
			c-0.04,0.22-0.06,0.44-0.1,0.66c-0.01,0.23-0.02,0.4-0.02,0.54v1.28v6.23h-2.61v-13.58h2.61V984.36z"/>
		<path class="st0" d="M614.1,996.12h-2.62v-25.19h2.62V996.12z"/>
		<path class="st0" d="M618.69,984.22c1.4-1.39,3.13-2.09,5.17-2.09c2.03,0,3.73,0.7,5.14,2.09c1.4,1.38,2.1,3.12,2.1,5.14
			c0,2.03-0.7,3.74-2.1,5.15c-1.41,1.38-3.11,2.08-5.14,2.08c-2.04,0-3.77-0.7-5.17-2.08c-1.4-1.41-2.09-3.12-2.09-5.15
			C616.59,987.34,617.28,985.6,618.69,984.22z M619.21,989.36c0,1.25,0.46,2.36,1.36,3.32c0.89,0.95,1.99,1.4,3.29,1.4
			c1.27,0,2.36-0.46,3.28-1.4c0.9-0.96,1.35-2.07,1.35-3.32c0-1.28-0.45-2.4-1.35-3.34c-0.92-0.93-2.01-1.39-3.28-1.39
			c-1.3,0-2.4,0.46-3.29,1.39C619.67,986.96,619.21,988.08,619.21,989.36z"/>
		<path class="st0" d="M646.23,996.12h-2.62V994h-0.06c-1.16,1.72-2.7,2.59-4.62,2.59c-1.99,0-3.58-0.71-4.76-2.12
			c-1.16-1.41-1.74-3.16-1.74-5.22c0-1.96,0.58-3.62,1.77-4.99c1.18-1.41,2.73-2.12,4.63-2.12c1.94,0,3.51,0.89,4.71,2.67h0.06
			v-2.26h2.62V996.12z M639.34,994.26c1.38,0,2.45-0.47,3.22-1.42c0.79-0.96,1.19-2.14,1.19-3.51c0-1.35-0.4-2.5-1.19-3.46
			c-0.78-0.94-1.84-1.41-3.22-1.41c-1.29,0-2.34,0.47-3.13,1.45c-0.78,0.95-1.17,2.08-1.17,3.42c0,1.37,0.39,2.54,1.17,3.48
			C637,993.78,638.05,994.26,639.34,994.26z"/>
		<path class="st0" d="M659.74,994h-0.05c-0.55,0.82-1.23,1.45-2.02,1.9c-0.8,0.46-1.67,0.69-2.6,0.69c-2.02,0-3.61-0.71-4.77-2.12
			c-1.16-1.41-1.74-3.16-1.74-5.22c0-1.96,0.6-3.62,1.77-4.99c1.18-1.41,2.72-2.12,4.62-2.12c1.95,0,3.52,0.89,4.73,2.67h0.05
			v-13.87h2.62v25.19h-2.62V994z M655.48,994.26c1.37,0,2.44-0.47,3.21-1.42c0.79-0.96,1.19-2.14,1.19-3.51
			c0-1.35-0.4-2.5-1.19-3.46c-0.78-0.94-1.84-1.41-3.21-1.41c-1.3,0-2.34,0.47-3.13,1.45c-0.77,0.95-1.16,2.08-1.16,3.42
			c0,1.37,0.39,2.54,1.16,3.48C653.13,993.78,654.18,994.26,655.48,994.26z"/>
		<path class="st0" d="M669.84,994.9c0,0.47-0.16,0.86-0.48,1.19c-0.34,0.33-0.74,0.5-1.21,0.5c-0.47,0-0.86-0.17-1.18-0.5
			c-0.34-0.33-0.5-0.72-0.5-1.19c0-0.44,0.16-0.84,0.5-1.18c0.32-0.33,0.71-0.5,1.18-0.5c0.46,0,0.86,0.17,1.21,0.5
			C669.68,994.06,669.84,994.45,669.84,994.9z"/>
		<path class="st0" d="M684.11,986.39c-1.08-1.22-2.38-1.83-3.88-1.83c-1.26,0-2.34,0.48-3.23,1.42c-0.88,0.96-1.29,2.09-1.29,3.34
			c0,1.42,0.42,2.57,1.29,3.45c0.91,0.92,2.04,1.37,3.39,1.37c1.39,0,2.64-0.62,3.72-1.8v3.33c-1.12,0.6-2.37,0.91-3.74,0.91
			c-2.02,0-3.74-0.7-5.17-2.07c-1.41-1.34-2.1-3.04-2.1-5.07c0-2.09,0.69-3.84,2.1-5.23c1.42-1.39,3.19-2.09,5.32-2.09
			c1.4,0,2.6,0.3,3.6,0.89V986.39z"/>
		<path class="st0" d="M687.8,984.22c1.41-1.39,3.14-2.09,5.16-2.09c2.03,0,3.75,0.7,5.13,2.09c1.42,1.38,2.12,3.12,2.12,5.14
			c0,2.03-0.7,3.74-2.12,5.15c-1.38,1.38-3.1,2.08-5.13,2.08c-2.03,0-3.75-0.7-5.16-2.08c-1.39-1.41-2.09-3.12-2.09-5.15
			C685.71,987.34,686.41,985.6,687.8,984.22z M688.33,989.36c0,1.25,0.45,2.36,1.37,3.32c0.87,0.95,1.98,1.4,3.27,1.4
			c1.27,0,2.38-0.46,3.28-1.4c0.91-0.96,1.36-2.07,1.36-3.32c0-1.28-0.45-2.4-1.36-3.34c-0.9-0.93-2-1.39-3.28-1.39
			c-1.29,0-2.4,0.46-3.27,1.39C688.78,986.96,688.33,988.08,688.33,989.36z"/>
		<path class="st0" d="M705.13,984.25h0.06c0.39-0.62,0.89-1.12,1.55-1.52c0.65-0.4,1.33-0.6,2.04-0.6c1.69,0,2.99,0.8,3.93,2.41
			c0.42-0.73,1.01-1.32,1.76-1.77c0.74-0.43,1.55-0.65,2.41-0.65c3.01,0,4.5,1.96,4.5,5.86v8.13h-2.61v-7.69
			c0-0.34-0.01-0.69-0.05-1.02c-0.02-0.35-0.08-0.68-0.15-0.99c-0.08-0.33-0.19-0.63-0.35-0.9c-0.16-0.26-0.38-0.51-0.64-0.72
			c-0.35-0.23-0.8-0.34-1.33-0.34c-0.55,0-1.01,0.11-1.39,0.34c-0.38,0.21-0.66,0.48-0.86,0.79c-0.21,0.32-0.37,0.73-0.47,1.21
			c-0.12,0.48-0.19,0.92-0.22,1.31c-0.03,0.38-0.04,0.83-0.04,1.34v6.67h-2.62v-7.2c0-0.46,0-0.84-0.02-1.15
			c-0.03-0.32-0.08-0.7-0.18-1.16c-0.09-0.51-0.21-0.87-0.37-1.11c-0.16-0.27-0.4-0.5-0.72-0.72c-0.34-0.21-0.73-0.31-1.19-0.31
			c-1.33,0-2.2,0.57-2.59,1.73c-0.17,0.56-0.29,1.05-0.35,1.55c-0.06,0.47-0.08,1.04-0.08,1.71v6.67h-2.62v-13.58h2.62V984.25z"/>
	</g>
</g>
<g id="Layer_1">
</g>
<g id="Layer_3">
	<g>
		<g>
			<path d="M336.2,768.69c-0.52,0-0.99-0.21-1.41-0.63l-8.53-12.14v25.38c0,1.57-0.63,2.35-1.88,2.35c-1.26,0-1.88-0.73-1.88-2.2
				v-29.56c0-1.5,0.59-2.25,1.78-2.25c0.77,0,1.43,0.4,1.99,1.2l9.94,13.92l9.99-13.92c0.56-0.8,1.2-1.2,1.94-1.2
				c1.22,0,1.83,0.75,1.83,2.25v29.56c0,1.47-0.65,2.2-1.94,2.2c-1.22,0-1.83-0.78-1.83-2.35v-25.38l-8.53,12.14
				C337.24,768.48,336.75,768.69,336.2,768.69z"/>
			<path d="M379.42,783.29h-7.38c-4.71,0-8.09-0.64-10.15-1.91c-2.06-1.27-3.09-3.74-3.09-7.4v-5.49c0-3.66,1.03-6.13,3.09-7.4
				c2.06-1.27,5.44-1.91,10.15-1.91h7.38c2.27,0,3.79,0.58,4.58,1.75c0.78,1.17,1.18,2.71,1.18,4.63c0,1.57-0.63,2.35-1.88,2.35
				c-0.49,0-0.92-0.17-1.31-0.52c-0.38-0.35-0.58-0.92-0.58-1.73c0-1.05-0.16-1.76-0.47-2.15c-0.31-0.38-0.94-0.58-1.88-0.58h-7.01
				c-3.91,0-6.46,0.32-7.67,0.97c-1.2,0.65-1.81,2.22-1.81,4.74v5.18c0,2.51,0.6,4.09,1.81,4.74c1.2,0.65,3.76,0.97,7.67,0.97h7.01
				c0.94,0,1.57-0.19,1.88-0.58c0.31-0.38,0.47-1.1,0.47-2.15c0-0.8,0.19-1.38,0.58-1.73c0.38-0.35,0.82-0.52,1.31-0.52
				c1.26,0,1.88,0.8,1.88,2.41c0,1.92-0.39,3.45-1.18,4.6C383.21,782.71,381.68,783.29,379.42,783.29z"/>
			<path d="M395.85,783.29c-1.19,0-1.78-0.75-1.78-2.25v-29.3c0-0.73,0.19-1.26,0.58-1.6c0.38-0.33,0.82-0.5,1.31-0.5
				c0.49,0,0.92,0.17,1.31,0.5c0.38,0.33,0.58,0.86,0.58,1.6v27.78h17.42c1.5,0,2.25,0.65,2.25,1.94c0,1.22-0.75,1.83-2.25,1.83
				H395.85z"/>
			<path d="M439.64,767.33h7.17v-2.2c0-0.87-0.16-1.46-0.47-1.75c-0.31-0.3-0.94-0.44-1.88-0.44h-7.38c-2.72,0-4.55,0.15-5.49,0.44
				c-0.94,0.3-1.41,0.83-1.41,1.6c0,1.57-0.65,2.35-1.94,2.35c-1.22,0-1.83-0.78-1.83-2.35c0-2.2,0.88-3.72,2.64-4.55
				c1.76-0.84,4.32-1.26,7.67-1.26h8.11c2.23,0,3.75,0.52,4.55,1.57c0.8,1.05,1.2,2.79,1.2,5.23v15.49c0,1.47-0.63,2.2-1.88,2.2
				c-1.26,0-1.88-0.78-1.88-2.35v-0.63c-2.09,1.74-5.23,2.62-9.42,2.62h-4.87c-1.78,0-3.24-0.61-4.4-1.83
				c-1.15-1.22-1.73-2.86-1.73-4.92c0-3.56,1.05-5.98,3.17-7.27C431.68,767.97,435.04,767.33,439.64,767.33z M446.81,771.1h-7.17
				c-3.91,0-6.46,0.32-7.67,0.97c-1.2,0.65-1.81,2.22-1.81,4.74c0,0.73,0.26,1.37,0.78,1.91c0.52,0.54,1.05,0.81,1.57,0.81h4.87
				c2.02,0,3.72-0.26,5.08-0.78c1.36-0.52,2.33-1.26,2.9-2.2c0.58-0.94,0.96-1.81,1.15-2.62
				C446.72,773.12,446.81,772.18,446.81,771.1z"/>
			<path d="M471.14,762.93c-2.58,0-4.54,0.72-5.89,2.15c-1.34,1.43-2.01,3.51-2.01,6.23v10.15c0,1.47-0.63,2.2-1.88,2.2
				c-1.26,0-1.88-0.73-1.88-2.2v-20.41c0-1.5,0.59-2.25,1.78-2.25c1.33,0,1.99,0.8,1.99,2.41v0.58c2.09-1.74,4.73-2.62,7.9-2.62
				h2.41c1.57,0,2.35,0.63,2.35,1.88s-0.78,1.88-2.35,1.88H471.14z"/>
			<path d="M511.07,768.48v2.51h-24.17v2.83c0,2.51,0.6,4.09,1.81,4.74c1.2,0.65,3.76,0.97,7.67,0.97h8.06
				c0.94,0,1.57-0.19,1.88-0.58c0.31-0.38,0.47-1.1,0.47-2.15c0-0.8,0.19-1.38,0.58-1.73c0.38-0.35,0.82-0.52,1.31-0.52
				c1.26,0,1.88,0.8,1.88,2.41c0,1.92-0.39,3.45-1.18,4.6c-0.78,1.15-2.31,1.73-4.58,1.73h-8.42c-4.71,0-8.09-0.64-10.15-1.91
				c-2.06-1.27-3.09-3.74-3.09-7.4v-5.49c0-3.66,1.03-6.13,3.09-7.4c2.06-1.27,5.44-1.91,10.15-1.91h1.52
				c4.67,0,8.04,0.64,10.1,1.91C510.04,762.35,511.07,764.82,511.07,768.48z M497.88,762.93h-1.52c-3.77,0-6.26,0.26-7.48,0.78
				c-1.22,0.52-1.88,1.69-1.99,3.51h20.41c-0.14-1.85-0.84-3.03-2.09-3.53C503.95,763.19,501.51,762.93,497.88,762.93z"/>
			<path d="M533.2,762.93c-3.52,0-5.98,0.76-7.38,2.28c-1.4,1.52-2.09,3.55-2.09,6.1v10.15c0,1.47-0.63,2.2-1.88,2.2
				c-1.26,0-1.88-0.73-1.88-2.2v-20.41c0-1.5,0.59-2.25,1.78-2.25c1.33,0,1.99,0.8,1.99,2.41v0.58c2.16-1.74,5.32-2.62,9.47-2.62
				h1.52c4.67,0,8.04,0.64,10.1,1.91c2.06,1.27,3.09,3.74,3.09,7.4v12.98c0,1.47-0.61,2.2-1.83,2.2c-1.29,0-1.94-0.73-1.94-2.2
				v-12.82c0-2.51-0.6-4.09-1.81-4.74c-1.2-0.65-3.74-0.97-7.61-0.97H533.2z"/>
			<path d="M589.92,783.81c-0.52,0-1.03-0.14-1.52-0.42c-0.49-0.28-0.73-0.71-0.73-1.31c0-0.35,0.12-0.77,0.37-1.26l11.56-27.58
				h-14.76c-0.94,0-1.58,0.18-1.91,0.55c-0.33,0.37-0.5,1.06-0.5,2.07c0,1.57-0.63,2.35-1.88,2.35c-1.26,0-1.88-0.78-1.88-2.35
				c0-2.27,0.46-3.9,1.39-4.89c0.92-0.99,2.38-1.49,4.37-1.49h17.79c1.26,0,1.88,0.58,1.88,1.73c0,0.28-0.07,0.68-0.21,1.2
				l-11.93,29.72C591.51,783.25,590.83,783.81,589.92,783.81z"/>
			<path d="M639.84,759.43c0,1.74-0.74,3.31-2.22,4.71c-1.48,1.4-3.3,2.61-5.44,3.64c-2.15,1.03-4.31,2.07-6.49,3.11
				c-2.18,1.05-4.08,2.33-5.7,3.85c-1.62,1.52-2.52,3.2-2.69,5.05h20.2c1.57,0,2.35,0.65,2.35,1.94c0,1.22-0.78,1.83-2.35,1.83
				h-23.97v-2.98c0-2.44,0.78-4.61,2.33-6.51c1.55-1.9,3.44-3.43,5.65-4.58c2.22-1.15,4.42-2.21,6.62-3.17
				c2.2-0.96,4.07-2,5.63-3.11c1.55-1.12,2.33-2.34,2.33-3.66c0-2.62-0.58-4.27-1.73-4.97c-1.15-0.7-3.4-1.05-6.75-1.05h-8.01
				c-0.91,0-1.52,0.18-1.83,0.52c-0.31,0.35-0.47,1.05-0.47,2.09c0,1.57-0.65,2.35-1.94,2.35c-1.22,0-1.83-0.78-1.83-2.35
				c0-2.3,0.45-3.94,1.36-4.92c0.91-0.98,2.35-1.47,4.34-1.47h8.37c4.22,0,7.32,0.66,9.29,1.99
				C638.86,753.06,639.84,755.63,639.84,759.43z"/>
			<path d="M675.11,775.02c0,2.51-0.95,4.56-2.85,6.15c-1.9,1.59-4.34,2.38-7.3,2.38h-6.07c-2.97,0-5.4-0.79-7.3-2.38
				c-1.9-1.59-2.85-3.64-2.85-6.15v-16.74c0-2.51,0.95-4.56,2.85-6.15c1.9-1.59,4.33-2.38,7.3-2.38h6.07c2.96,0,5.4,0.79,7.3,2.38
				c1.9,1.59,2.85,3.64,2.85,6.15V775.02z M652.51,757.6v18.16c0,0.94,0.55,1.85,1.65,2.72c1.1,0.87,2.49,1.31,4.16,1.31h7.22
				c1.67,0,3.06-0.44,4.16-1.31c1.1-0.87,1.65-1.78,1.65-2.72V757.6c0-0.94-0.55-1.85-1.65-2.72c-1.1-0.87-2.49-1.31-4.16-1.31
				h-7.22c-1.67,0-3.06,0.44-4.16,1.31C653.05,755.75,652.51,756.65,652.51,757.6z"/>
			<path d="M687.77,758.43c0,1.19,0.26,2.22,0.78,3.11s1.17,1.42,1.94,1.6l14.39,2.56c2.55,0.49,4.38,1.58,5.49,3.27
				c1.12,1.69,1.67,3.67,1.67,5.94c0,2.44-0.77,4.52-2.3,6.23c-1.54,1.71-4.06,2.56-7.59,2.56h-5.02c-4.6,0-7.95-0.66-10.02-1.99
				c-2.08-1.33-3.11-3.98-3.11-7.95c0-1.5,0.66-2.25,1.99-2.25c0.56,0,1,0.21,1.33,0.63c0.33,0.42,0.5,0.96,0.5,1.62
				c0,2.69,0.6,4.39,1.81,5.1c1.2,0.72,3.71,1.07,7.51,1.07h6.17c1.81,0,3.1-0.55,3.85-1.65c0.75-1.1,1.13-2.28,1.13-3.53
				c0-1.57-0.31-2.82-0.94-3.74c-0.63-0.92-1.22-1.46-1.78-1.6l-14.28-2.67c-2.62-0.52-4.48-1.46-5.6-2.8
				c-1.12-1.34-1.67-3.24-1.67-5.68c0-1.12,0.16-2.15,0.5-3.09c0.33-0.94,0.88-1.86,1.65-2.75c0.77-0.89,1.89-1.59,3.38-2.09
				c1.48-0.51,3.25-0.76,5.31-0.76h3.98c2.34,0,4.25,0.12,5.73,0.37c1.48,0.24,2.83,0.71,4.06,1.39c1.22,0.68,2.1,1.68,2.64,3.01
				c0.54,1.33,0.81,3.02,0.81,5.08c0,0.8-0.2,1.38-0.6,1.73c-0.4,0.35-0.85,0.52-1.33,0.52c-0.56,0-1.01-0.21-1.36-0.63
				c-0.35-0.42-0.52-0.96-0.52-1.62c0-2.69-0.59-4.37-1.78-5.05c-1.19-0.68-3.73-1.02-7.64-1.02h-5.55c-2.02,0-3.45,0.54-4.26,1.62
				C688.18,756.06,687.77,757.21,687.77,758.43z"/>
			<path d="M435.82,825.23c1.28,0,1.92,0.55,1.92,1.66c0,0.47-0.18,0.84-0.55,1.11c-0.36,0.28-0.82,0.41-1.37,0.41h-10.68
				c-1.19,0-1.79-0.54-1.79-1.61c0-0.38,0.14-0.73,0.41-1.07c0.28-0.33,0.73-0.5,1.37-0.5H435.82z"/>
			<path d="M483.39,816.98c0,1.45-0.62,2.76-1.85,3.92c-1.24,1.16-2.75,2.17-4.53,3.03c-1.79,0.86-3.59,1.72-5.41,2.59
				c-1.82,0.87-3.4,1.94-4.75,3.2c-1.35,1.26-2.1,2.67-2.25,4.21h16.83c1.31,0,1.96,0.54,1.96,1.61c0,1.02-0.65,1.53-1.96,1.53
				h-19.97v-2.49c0-2.03,0.65-3.84,1.94-5.43c1.29-1.58,2.86-2.86,4.71-3.82c1.85-0.96,3.68-1.84,5.52-2.64
				c1.83-0.8,3.39-1.66,4.69-2.59c1.29-0.93,1.94-1.95,1.94-3.05c0-2.18-0.48-3.56-1.44-4.14c-0.96-0.58-2.83-0.87-5.63-0.87h-6.67
				c-0.76,0-1.26,0.15-1.53,0.44c-0.26,0.29-0.39,0.87-0.39,1.74c0,1.31-0.54,1.96-1.61,1.96c-1.02,0-1.53-0.65-1.53-1.96
				c0-1.92,0.38-3.28,1.13-4.1c0.76-0.81,1.96-1.22,3.62-1.22h6.98c3.52,0,6.1,0.55,7.74,1.66
				C482.57,811.68,483.39,813.82,483.39,816.98z"/>
			<path d="M512.78,829.98c0,2.09-0.79,3.8-2.38,5.12c-1.58,1.32-3.61,1.98-6.08,1.98h-5.06c-2.47,0-4.5-0.66-6.08-1.98
				c-1.58-1.32-2.38-3.03-2.38-5.12v-13.95c0-2.09,0.79-3.8,2.38-5.12c1.58-1.32,3.61-1.98,6.08-1.98h5.06
				c2.47,0,4.5,0.66,6.08,1.98c1.58,1.32,2.38,3.03,2.38,5.12V829.98z M493.94,815.46v15.13c0,0.78,0.46,1.54,1.37,2.27
				c0.92,0.73,2.07,1.09,3.47,1.09h6.02c1.4,0,2.55-0.36,3.47-1.09c0.92-0.73,1.37-1.48,1.37-2.27v-15.13
				c0-0.78-0.46-1.54-1.37-2.27c-0.92-0.73-2.07-1.09-3.47-1.09h-6.02c-1.4,0-2.55,0.36-3.47,1.09
				C494.4,813.92,493.94,814.67,493.94,815.46z"/>
			<path d="M542.17,816.98c0,1.45-0.62,2.76-1.85,3.92c-1.24,1.16-2.75,2.17-4.53,3.03c-1.79,0.86-3.59,1.72-5.41,2.59
				c-1.82,0.87-3.4,1.94-4.75,3.2c-1.35,1.26-2.1,2.67-2.25,4.21h16.83c1.31,0,1.96,0.54,1.96,1.61c0,1.02-0.65,1.53-1.96,1.53
				h-19.97v-2.49c0-2.03,0.65-3.84,1.94-5.43c1.29-1.58,2.86-2.86,4.71-3.82c1.85-0.96,3.68-1.84,5.52-2.64
				c1.83-0.8,3.39-1.66,4.69-2.59c1.29-0.93,1.94-1.95,1.94-3.05c0-2.18-0.48-3.56-1.44-4.14c-0.96-0.58-2.83-0.87-5.63-0.87h-6.67
				c-0.76,0-1.26,0.15-1.53,0.44c-0.26,0.29-0.39,0.87-0.39,1.74c0,1.31-0.54,1.96-1.61,1.96c-1.02,0-1.53-0.65-1.53-1.96
				c0-1.92,0.38-3.28,1.13-4.1c0.76-0.81,1.96-1.22,3.62-1.22h6.98c3.52,0,6.1,0.55,7.74,1.66
				C541.35,811.68,542.17,813.82,542.17,816.98z"/>
			<path d="M571.56,816.98c0,1.45-0.62,2.76-1.85,3.92c-1.24,1.16-2.75,2.17-4.53,3.03c-1.79,0.86-3.59,1.72-5.41,2.59
				c-1.82,0.87-3.4,1.94-4.75,3.2c-1.35,1.26-2.1,2.67-2.25,4.21h16.83c1.31,0,1.96,0.54,1.96,1.61c0,1.02-0.65,1.53-1.96,1.53
				h-19.97v-2.49c0-2.03,0.65-3.84,1.94-5.43c1.29-1.58,2.86-2.86,4.71-3.82c1.85-0.96,3.68-1.84,5.52-2.64
				c1.83-0.8,3.39-1.66,4.69-2.59c1.29-0.93,1.94-1.95,1.94-3.05c0-2.18-0.48-3.56-1.44-4.14c-0.96-0.58-2.83-0.87-5.63-0.87h-6.67
				c-0.76,0-1.26,0.15-1.53,0.44c-0.26,0.29-0.39,0.87-0.39,1.74c0,1.31-0.54,1.96-1.61,1.96c-1.02,0-1.53-0.65-1.53-1.96
				c0-1.92,0.38-3.28,1.13-4.1c0.76-0.81,1.96-1.22,3.62-1.22h6.98c3.52,0,6.1,0.55,7.74,1.66
				C570.74,811.68,571.56,813.82,571.56,816.98z"/>
			<path d="M607.75,825.23c1.28,0,1.92,0.55,1.92,1.66c0,0.47-0.18,0.84-0.55,1.11c-0.36,0.28-0.82,0.41-1.37,0.41h-10.68
				c-1.19,0-1.79-0.54-1.79-1.61c0-0.38,0.14-0.73,0.41-1.07c0.28-0.33,0.73-0.5,1.37-0.5H607.75z"/>
		</g>
		<rect x="303.27" y="714" width="420.47" height="2.23"/>
		<rect x="303.27" y="871.77" width="420.47" height="2.23"/>
	</g>
	<g>
		<path class="st1" d="M158.28,567.81l165.22-3.31l6-75c0,0-47-69-102-54S132.05,489.12,158.28,567.81z"/>
		<path class="st1" d="M731.28,561l165.22-3.37l6-76.43c0,0-47-70.31-102-55.03S705.05,480.81,731.28,561z"/>
		<path class="st2" d="M162.59,567.77l-91.47-1.03l-8.22-5.14c0,0,17.47-9.25,15.42-17.47c-2.06-8.22-17.47-21.58-17.47-21.58
			l-10.28,6.17c0,0-12.33-22.61-8.22-33.91c4.11-11.3,52.41-33.91,107.91-54.47c55.5-20.55,121.27-19.53,121.27-19.53
			s52.41,2.06,95.58,0c43.16-2.06,230.2-23.64,230.2-23.64s87.35-11.3,110.99-11.3s80.16,4.11,80.16,4.11s53.44,2.06,78.11,5.14
			s51.39,11.3,66.8,13.36c15.42,2.06,17.47,2.06,17.47,2.06l16.44,6.17c0,0-16.44-5.14-27.75-5.14s-48.3,12.33-48.3,12.33
			s44.19,31.86,54.47,32.89c10.28,1.03,33.91-9.25,33.91-9.25s5.14,6.17-1.03,11.3c-6.17,5.14-15.42,18.5-22.61,27.75
			c-7.19,9.25-25.69,34.94-30.83,40.08c-5.14,5.14-30.83,13.36-30.83,13.36s8.22-33.91-16.44-70.91s-71.94-39.05-93.52-32.89
			c-21.58,6.17-53.44,32.89-58.58,63.72s5.14,59.61,5.14,59.61l-423.41,6.17c0,0,10.28-33.91,4.11-57.55s-34.94-68.86-80.16-63.72
			s-73.99,39.05-76.05,70.91C153.34,547.21,162.59,567.77,162.59,567.77z"/>
		<path class="st3" d="M275.33,421c0,0,66.08-32.06,90.74-45.42c24.66-13.36,64.75-28.78,82.22-32.89
			c17.47-4.11,57.55-14.39,143.88,0s189.1,46.25,189.1,46.25"/>
		<path class="st4" d="M90.65,508.16c0,0,13.36-5.14,29.8-26.72s26.72-31.86,8.22-29.8c-18.5,2.06-80.16,35.97-78.11,44.19
			C52.62,504.05,81.4,510.21,90.65,508.16z"/>
		<path class="st5" d="M265,450l51-6c0,0,41-5,39-3s-29,13-28,14s66-6,66-6l84-8c0,0,104-9,143-8s56,3,64,6s30,14,26,18
			s-21,11-21,11s-23,9-61,14s-105,10-105,10l-148,11l-46-31c0,0-13-9-15-9s-29.21,0.89-29.21,0.89L265,450z"/>
		<path class="st5" d="M731,560l-424,6l3.45-10.19c0,0,119.55-5.81,189.55-17.81s232.49-57.51,232.49-57.51s-10.36,20.64-8.43,39.57
			C726,539,731,560,731,560z"/>
		<path class="st5" d="M785.09,390.11c0,0,61.91,11.89,63.91,24.89s-33,19-33,19s36.77,3.17,55.38,27.09
			c18.62,23.91,20.43,38.3,20.43,38.3s5.47,19.98,3.83,26.3S894,540,894,540l31-12.28l8.68-12l23.23-30.13L973,464l7.91-7.26
			l1.28-3.57L980,448l-42-1l4.62-36.98L896,400l-36-6l-49-4L785.09,390.11z"/>
		<path class="st6" d="M977.34,447.98c0,0-21.6,11.7-30.47,9.36C938,455,890,424,890,424s41-13,54-13s23,6,23,6l-5,11h5l-4,17
			L977.34,447.98z"/>
		<path class="st6" d="M894,541l-1,15l-1,5c0,0,49-2,52-5s4-6,4-6l6-18c0,0,5-19,7-24s8-12,8-12l9-3h1l3-3v-2l-8-24l-21.17,26.87
			l-20.17,27.15l-8.43,10.13L913,534L894,541z"/>
		<polygon class="st5" points="159,559 65.51,560.57 63.47,562.02 70,567 163,568 		"/>
		<path class="st7" d="M360,420l5-4l14-5l2-5l1-5l1-8l-1-3c0,0,38-25,79-30s106,1,146,9s60,16,60,16l5,3l-231.47,26.49L359.85,421
			L360,420z"/>
		<path class="st8" d="M281,421.09l20-0.09c0,0,21-13,33-20s31-18,37-21s24-12,27-13s19-14-1-6s-30,14-30,14l-52,26l-38,20
			L281,421.09z"/>
		<path class="st9" d="M182.5,463.5c-1,0-19,1-27,9s-30,36-32,40s-6,12-1,15s16,4,16,4l16-1c0,0-1.23-14.28,2.88-26.14
			s9.06-20.81,9.06-20.81l7.15-9.57L182.5,463.5z"/>
		<polygon class="st10" points="135,559 136.32,531.55 147.43,531.17 154.06,530.53 156,549 159,559 		"/>
		<path class="st10" d="M94.96,464.32C94.96,464.32,47,487,51,496s22.85,11.38,22.85,11.38L87,544c0,0,15,3,24,7s9,8,9,8l-56.53,2
			l-12.9-32.29L44,509l-3-13l3-5l8-6l14.87-8.26C66.87,476.74,93.91,460.64,94.96,464.32z"/>
		<path class="st6" d="M64,562c-1,0-14,0-14,0l5-11l-2-18l-3-4l11-7c0,0,19.06,18.21,17.53,24.11S64,562,64,562z"/>
		<path class="st10" d="M121,453c0,0,19-8,22-4s4,25,4,25s46-38,83-37s46,8,46,8S224,413,121,453z"/>
		<path class="st11" d="M266.53,421.51c0,0,48.47,6.49,127.47,5.49s168-7,200-6s118,4,118,4s-37-4-60-4s-52-2-50-7s39-8,39-8l42-5
			l39-4l66.74-5.87c0,0-55.74-7.13-86.74-5.13s-135.55,15.17-135.55,15.17l-140.94,14.81l-53.96,4.77L341,421L266.53,421.51z"/>
		<path class="st12" d="M310.45,556.57c0,0,65.55-5.57,107.55-9.57s119-15,119-15s83-14,80-3s-32.89,30.4-93.45,33.7
			C463,566,307,566,307,566L310.45,556.57z"/>
		<path class="st13" d="M591,549l134-12l5,22l-207.77,3.7C522.23,562.7,576,557,591,549z"/>
		<path class="st2" d="M724,532c0,0-89,3-60-19s60-32,60-32l7.89-2.04C731.89,478.96,720,509,724,532z"/>
		<path class="st14" d="M724,483c0,0,20-48,61-57s75,13,75,13s20,8,34,36s12,44,12,44l-9.72,2.09c0,0-2.68-30.23-16.98-49.66
			C865,452,842,431,808,433s-56,19-62,28s-14.91,20.51-14.91,20.51L724,483z"/>
		<path class="st15" d="M390,420l159.77-17.3L562,368c0,0-89,0-98,4S390,420,390,420z"/>
		<path class="st15" d="M600.87,396.62L606,374c0,0,60,12,59,14S600.87,396.62,600.87,396.62z"/>
		<polygon class="st3" points="550.45,402.23 563.98,362.53 608,368 600,398 		"/>
		<polygon class="st3" points="301.77,421.43 335.89,421.77 345,415 310,415 299.38,421.43 		"/>
		<path class="st15" d="M421,359c0,0,25-13,68-15s109,7,109,7s60,9,82,13s36,7,36,7s-88-24-155-29S469,337,421,359z"/>
		<path class="st14" d="M604,411c0,0,52-9,104-13s81-7,81-7S719,387,604,411z"/>
		<path class="st16" d="M121,477c0,0-72.17,7.79-68.09,14.89S104,498,104,498l8-7c0,0-53,4-49,0S121,477,121,477z"/>
		<path class="st17" d="M131,451c-1.39,0.25-30,24-20,24s18-3,18-3S148,448,131,451z"/>
		<path class="st18" d="M175,471l-20.13,2.26l-10.3,11.66L165,483C165,483,170,476,175,471z"/>
		<path class="st19" d="M170,475c0,0-17,0-15,2s13,1,13,1S171,475,170,475z"/>
		<path class="st20" d="M314.5,461.5c0,0,82,36,88,40s15,17,15,17s-16,1-33-9s-70-46-70-46V461.5z"/>
		<path class="st21" d="M310.11,553.85c0,0,7.89-7.85,22.89-9.85s124-13,159-21s77-17,77-17s-119,18-146,13s-54-18.26-54-18.26
			L333,477l-31.74,9.11c0,0,11.72,16.89,11.23,26.89C312,523,310.11,553.85,310.11,553.85z"/>
		<path class="st14" d="M137,557c0,0-11-7-28-10s-27-4-27-4s29.45,6.34,33.72,10.17s4.43,6.47,4.43,6.47l17.36-0.68L137,557z"/>
		<polygon class="st22" points="410.5,362.5 414.5,353.5 426.5,349.5 420.5,358.5 		"/>
		<path class="st14" d="M407.98,507.04c0,0,183.52-13.54,218.52-19.54s65.9-21.05,65.9-21.05S680.4,473.87,638,481
			c-12.41,2.09-26.98,2.98-45.17,5.11C512.5,495.5,402.5,501.5,402.5,501.5L407.98,507.04z"/>
		<path class="st14" d="M327,455c0,0,127.08-14.92,189-20c61-5,100-3,100-3s-61.15,2.38-146.57,10.19C384,450,327,455,327,455z"/>
		<path class="st23" d="M162.59,567.77l-91.47-1.03l-8.22-5.14c0,0,17.47-9.25,15.42-17.47c-2.06-8.22-17.47-21.58-17.47-21.58
			l-10.28,6.17c0,0-12.33-22.61-8.22-33.91c4.11-11.3,52.41-33.91,107.91-54.47c55.5-20.55,121.27-19.53,121.27-19.53
			s52.41,2.06,95.58,0c43.16-2.06,230.2-23.64,230.2-23.64s87.35-11.3,110.99-11.3s80.16,4.11,80.16,4.11s53.44,2.06,78.11,5.14
			s51.39,11.3,66.8,13.36c15.42,2.06,17.47,2.06,17.47,2.06l16.44,6.17c0,0-16.44-5.14-27.75-5.14s-48.3,12.33-48.3,12.33
			s44.19,31.86,54.47,32.89c10.28,1.03,33.91-9.25,33.91-9.25s5.14,6.17-1.03,11.3c-6.17,5.14-15.42,18.5-22.61,27.75
			c-7.19,9.25-25.69,34.94-30.83,40.08c-5.14,5.14-30.83,13.36-30.83,13.36s8.22-33.91-16.44-70.91s-71.94-39.05-93.52-32.89
			c-21.58,6.17-53.44,32.89-58.58,63.72s5.14,59.61,5.14,59.61l-423.41,6.17c0,0,10.28-33.91,4.11-57.55s-34.94-68.86-80.16-63.72
			s-73.99,39.05-76.05,70.91C153.34,547.21,162.59,567.77,162.59,567.77z"/>
		<path class="st24" d="M781.26,388.95c0,0-102.77-31.86-189.1-46.25s-126.41-4.11-143.88,0c-17.47,4.11-57.55,19.53-82.22,32.89
			C341.41,388.95,275.33,421,275.33,421l61.17-0.5l-2,2"/>
		<path class="st11" d="M335.33,421.79l-11.91,8.78c0,0,5.14,3.08,14.39,5.14s13.36-3.08,13.36-3.08s8.22-14.39,15.42-17.47
			s12.33-5.14,12.33-5.14s3.08-6.17,0-6.17s-29.8,7.19-29.8,7.19v1.03L335.33,421.79z"/>
		<polyline class="st25" points="51.08,529.23 53.14,533.34 55.19,550.81 50.05,562.11 63.49,561.21 		"/>
		<path class="st26" d="M90.65,508.16c0,0,13.36-5.14,29.8-26.72s26.72-31.86,8.22-29.8c-18.5,2.06-80.16,35.97-78.11,44.19
			C52.62,504.05,81.4,510.21,90.65,508.16z"/>
		<path class="st26" d="M174.41,470.65c0,0-17.47,2.06-19.53,3.08c-2.06,1.03-39.05,42.14-33.91,51.38
			c5.14,9.25,33.91,5.14,33.91,5.14"/>
		<g>
			<path class="st27" d="M120.96,477.84c-4.66,0.8-9.32,1.59-13.96,2.44c-4.65,0.82-9.3,1.67-13.93,2.57
				c-4.63,0.92-9.27,1.82-13.87,2.86c-4.59,1.05-9.2,2.13-13.6,3.72c-1.09,0.4-2.18,0.84-3.11,1.43c-0.46,0.27-0.87,0.72-0.83,0.89
				c-0.02,0.07,0.11,0.23,0.29,0.39c0.18,0.15,0.4,0.29,0.65,0.4c0.98,0.45,2.14,0.67,3.28,0.85c1.15,0.17,2.32,0.27,3.49,0.33
				c4.69,0.25,9.41,0.05,14.12-0.15c4.71-0.23,9.42-0.59,14.13-1c4.71-0.39,9.41-0.87,14.11-1.36c-9.35,1.4-18.75,2.48-28.19,3.13
				c-4.72,0.32-9.46,0.5-14.21,0.29c-1.19-0.06-2.38-0.15-3.57-0.32c-1.19-0.18-2.38-0.38-3.56-0.91c-0.29-0.13-0.58-0.3-0.86-0.52
				c-0.14-0.11-0.26-0.24-0.39-0.4c-0.06-0.09-0.12-0.19-0.17-0.29c-0.04-0.11-0.06-0.24-0.08-0.36c-0.02-0.52,0.25-0.89,0.49-1.14
				c0.25-0.26,0.51-0.45,0.77-0.63c1.07-0.68,2.18-1.13,3.3-1.55c4.51-1.59,9.13-2.64,13.75-3.67c4.63-1,9.26-1.92,13.92-2.73
				C102.24,480.46,111.59,479.03,120.96,477.84z"/>
		</g>
		<g>
			<path class="st27" d="M131.24,451.12c-2.99,3.02-6.04,5.96-9.04,8.92c-1.49,1.5-3,2.96-4.45,4.48c-1.46,1.51-2.91,3.03-4.22,4.63
				c-0.66,0.79-1.3,1.6-1.84,2.43c-0.26,0.41-0.5,0.84-0.67,1.24c-0.18,0.39-0.2,0.8-0.18,0.82c-0.07-0.02,0.11,0.14,0.53,0.19
				c0.2,0.02,0.42,0.03,0.7,0.02l0.77,0c1.03-0.01,2.07-0.06,3.1-0.14c4.13-0.36,8.26-1.25,12.26-2.68
				c-3.66,2.19-7.81,3.56-12.07,4.23c-1.07,0.18-2.15,0.29-3.23,0.34l-0.81,0.04c-0.26,0.02-0.56,0.02-0.89,0
				c-0.34-0.04-0.68-0.08-1.08-0.26c-0.38-0.16-0.83-0.52-1.03-1.01c-0.2-0.48-0.19-0.92-0.14-1.29c0.06-0.36,0.16-0.68,0.27-0.97
				c0.23-0.58,0.51-1.09,0.81-1.57c0.6-0.96,1.26-1.83,1.95-2.66c2.81-3.3,5.92-6.2,9.15-8.98
				C124.37,456.13,127.72,453.51,131.24,451.12z"/>
		</g>
		<g>
			<path class="st27" d="M106.58,478.87c-4.49,0.55-8.97,1.13-13.44,1.8c-4.47,0.64-8.94,1.34-13.38,2.14
				c-4.44,0.82-8.88,1.66-13.24,2.78c-2.18,0.56-4.35,1.17-6.45,1.93c-1.05,0.38-2.09,0.8-3.07,1.29c-0.98,0.5-1.95,1.05-2.66,1.79
				c-0.35,0.36-0.62,0.77-0.69,1.19c-0.07,0.41,0.06,0.85,0.33,1.23c0.58,0.77,1.56,1.32,2.55,1.74c2.02,0.85,4.23,1.33,6.43,1.73
				c4.42,0.78,8.93,1.12,13.43,1.42c4.5,0.28,9.02,0.41,13.54,0.47c4.52,0.09,9.04,0.07,13.56,0.02
				c-9.03,0.52-18.09,0.64-27.14,0.28c-4.53-0.19-9.05-0.55-13.55-1.29c-2.24-0.39-4.49-0.86-6.65-1.74c-1.06-0.46-2.16-1-2.97-2.05
				c-0.39-0.53-0.63-1.24-0.51-1.96c0.12-0.71,0.52-1.28,0.94-1.72c0.88-0.89,1.91-1.45,2.95-1.97c1.04-0.51,2.11-0.93,3.18-1.31
				c2.16-0.76,4.35-1.37,6.55-1.92c4.41-1.08,8.86-1.95,13.33-2.65C88.57,480.62,97.56,479.57,106.58,478.87z"/>
		</g>
		<g>
			<path class="st27" d="M136.38,452.15l-6.5,6.64c-2.14,2.23-4.31,4.44-6.28,6.79c-0.49,0.58-0.97,1.18-1.41,1.79
				c-0.22,0.31-0.42,0.62-0.59,0.93c-0.17,0.3-0.3,0.66-0.3,0.83c0.02,0.07-0.04-0.01,0.02,0.03c0.06,0.03,0.22,0.04,0.37,0.03
				c0.32-0.03,0.73-0.12,1.09-0.18c0.74-0.15,1.48-0.34,2.21-0.55c1.46-0.44,2.89-1.02,4.26-1.7c1.39-0.66,2.73-1.43,4.03-2.28
				c-2.35,2.03-5.09,3.63-8.05,4.71c-0.74,0.27-1.5,0.5-2.27,0.68c-0.4,0.08-0.74,0.18-1.19,0.23c-0.23,0.01-0.46,0.04-0.77-0.06
				c-0.32-0.07-0.66-0.5-0.64-0.83c-0.02-0.62,0.21-0.98,0.39-1.36c0.2-0.37,0.41-0.71,0.64-1.04c0.45-0.66,0.94-1.27,1.44-1.88
				c2.04-2.38,4.23-4.58,6.51-6.69C131.62,456.13,133.95,454.08,136.38,452.15z"/>
		</g>
		<path class="st28" d="M310.14,556.75c0,0,182.85-12.1,258.9-31.63c76.05-19.53,162.38-44.19,162.38-44.19"/>
		<g>
			<path class="st29" d="M265.87,450.09l53-6.38c8.84-1.02,17.68-2.02,26.55-2.81c2.22-0.19,4.44-0.37,6.66-0.47
				c0.56-0.02,1.12-0.04,1.68-0.04c0.28,0,0.56,0.01,0.85,0.03c0.14,0.01,0.29,0.03,0.44,0.06c0.08,0.02,0.15,0.03,0.25,0.08
				c0.13,0.01,0.24,0.34,0.16,0.41c-0.19,0.38-0.44,0.5-0.67,0.68c-0.24,0.16-0.48,0.31-0.72,0.45c-0.49,0.28-0.99,0.54-1.49,0.79
				c-4.02,1.95-8.14,3.61-12.23,5.37c-2.05,0.87-4.09,1.74-6.12,2.65c-2.01,0.92-4.06,1.82-5.92,2.97c-0.23,0.15-0.45,0.3-0.65,0.47
				c-0.2,0.14-0.38,0.41-0.36,0.42c-0.05-0.02,0.24,0.14,0.49,0.14c0.25,0.04,0.52,0.04,0.8,0.04l3.31-0.2l6.64-0.57l26.57-2.53
				l53.13-5.19c35.43-3.4,70.86-6.76,106.34-9.59c17.74-1.42,35.49-2.73,53.28-3.5c17.79-0.71,35.59-1.03,53.4-0.8
				c8.9,0.16,17.81,0.48,26.69,1.17c4.44,0.36,8.88,0.79,13.29,1.48c4.41,0.69,8.82,1.51,13.06,3.11c4.15,1.69,8.14,3.71,12.04,5.88
				c3.88,2.2,7.71,4.52,11.18,7.41c0.86,0.74,1.69,1.5,2.4,2.44c0.35,0.47,0.68,0.98,0.85,1.62c0.03,0.17,0.05,0.34,0.07,0.51
				c-0.02,0.18-0.04,0.37-0.09,0.55c-0.08,0.17-0.16,0.35-0.27,0.49c-0.12,0.13-0.25,0.26-0.38,0.37c-1.81,1.34-3.7,2.54-5.65,3.64
				c-3.9,2.19-7.93,4.13-12.07,5.79c-8.26,3.39-16.8,6.02-25.42,8.24c-4.3,1.17-8.66,2.07-13.01,3.05
				c-2.18,0.45-4.37,0.85-6.56,1.28c-2.19,0.42-4.37,0.86-6.57,1.19c-17.56,3.01-35.31,4.67-53.03,6.22
				c-70.91,6.2-141.91,11.27-212.91,16.17c35.49-2.6,70.98-5.29,106.46-8.08c35.48-2.76,70.96-5.57,106.4-8.75
				c17.72-1.58,35.44-3.26,52.96-6.3c2.2-0.33,4.37-0.78,6.56-1.2c2.18-0.43,4.37-0.83,6.54-1.28c4.33-0.99,8.68-1.89,12.97-3.07
				c8.59-2.23,17.1-4.86,25.3-8.25c4.11-1.66,8.12-3.58,11.97-5.76c1.93-1.09,3.79-2.27,5.56-3.59c0.34-0.27,0.47-0.58,0.35-1.03
				c-0.12-0.44-0.39-0.88-0.7-1.3c-0.64-0.84-1.45-1.59-2.28-2.3c-3.38-2.81-7.2-5.12-11.05-7.3c-3.87-2.15-7.84-4.16-11.94-5.81
				c-4.1-1.54-8.49-2.36-12.86-3.03c-4.38-0.67-8.8-1.1-13.23-1.45c-8.86-0.68-17.74-0.98-26.63-1.13
				c-17.78-0.26-35.57,0.03-53.34,0.71c-17.77,0.74-35.52,2.02-53.25,3.41c-35.48,2.77-70.91,6.08-106.34,9.42l-53.14,5.1
				l-26.58,2.49l-6.65,0.56l-3.35,0.2c-0.28,0-0.57-0.01-0.87-0.05c-0.15-0.02-0.3-0.05-0.46-0.1c-0.15-0.08-0.39-0.14-0.46-0.46
				c-0.03-0.29,0.11-0.46,0.2-0.58c0.11-0.13,0.22-0.23,0.33-0.33c0.23-0.19,0.46-0.35,0.7-0.51c1.93-1.19,3.97-2.08,6-3
				c2.03-0.91,4.08-1.78,6.13-2.64c4.09-1.74,8.23-3.39,12.23-5.3c0.5-0.24,0.99-0.5,1.47-0.77c0.24-0.13,0.47-0.28,0.7-0.43
				c0.21-0.14,0.46-0.34,0.51-0.47c-0.02-0.06,0.05,0.12,0.03,0.07c-0.03-0.01-0.09-0.03-0.14-0.04c-0.12-0.03-0.25-0.04-0.39-0.05
				c-0.27-0.02-0.54-0.03-0.82-0.03c-0.55,0-1.1,0.01-1.66,0.03c-2.22,0.09-4.43,0.26-6.65,0.44c-8.86,0.75-17.71,1.72-26.55,2.69
				L265.87,450.09z"/>
		</g>
		<g>
			<path class="st30" d="M314.17,461.4c9.14,3.67,18.23,7.48,27.3,11.33c9.07,3.85,18.09,7.81,27.1,11.79
				c8.97,4.07,17.97,8.1,26.78,12.52c2.2,1.12,4.39,2.25,6.51,3.57c0.53,0.36,1.04,0.75,1.49,1.17c0.47,0.4,0.92,0.83,1.37,1.25
				c0.9,0.85,1.77,1.73,2.62,2.62c3.38,3.59,6.58,7.36,9.6,11.25c-3.2-3.75-6.46-7.44-9.95-10.9c-0.87-0.87-1.75-1.72-2.66-2.55
				c-0.45-0.41-0.91-0.83-1.38-1.21c-0.46-0.42-0.94-0.76-1.44-1.09c-2.08-1.25-4.3-2.34-6.51-3.42
				c-8.86-4.27-17.85-8.31-26.85-12.3l-27-12L314.17,461.4z"/>
		</g>
		<path class="st28" d="M311.09,552.86c0,0,11.3-8.22,25.69-9.25c14.39-1.03,94.55-10.28,143.88-18.5
			c49.33-8.22,80.16-17.47,80.16-17.47"/>
		<g>
			<path class="st31" d="M786.91,391.52c-12.55,0.87-25.09,1.98-37.62,3.08c-12.54,1.08-25.07,2.22-37.59,3.42
				c-25.04,2.45-50.07,5.09-75.01,8.39l-9.36,1.21l-9.34,1.31c-1.55,0.23-3.13,0.41-4.66,0.68c-1.54,0.27-3.07,0.59-4.58,0.98
				c-1.5,0.4-3,0.85-4.39,1.49c-0.68,0.32-1.36,0.7-1.85,1.19c-0.51,0.5-0.64,1.05-0.24,1.59c0.38,0.54,1.02,0.99,1.67,1.36
				c0.66,0.37,1.36,0.71,2.07,0.95c1.45,0.48,3,0.76,4.53,1.01c3.09,0.49,6.22,0.79,9.35,1.05c6.26,0.51,12.55,0.81,18.83,1.09
				l37.72,1.39c6.29,0.29,12.57,0.6,18.85,1.07c3.14,0.24,6.27,0.51,9.4,0.88c3.11,0.4,6.26,0.79,9.26,1.78
				c-3-0.96-6.15-1.3-9.27-1.66c-3.13-0.33-6.26-0.57-9.4-0.76c-6.28-0.39-12.56-0.62-18.85-0.83l-37.73-1.21
				c-6.29-0.25-12.58-0.53-18.86-1.01c-3.14-0.25-6.28-0.54-9.41-1.02c-1.56-0.25-3.13-0.52-4.67-1.02c-0.78-0.26-1.51-0.61-2.22-1
				c-0.7-0.41-1.41-0.86-1.95-1.61c-0.26-0.37-0.45-0.89-0.36-1.41c0.09-0.52,0.38-0.92,0.69-1.23c0.63-0.62,1.36-1.01,2.09-1.37
				c1.47-0.68,3-1.15,4.53-1.56c1.54-0.41,3.08-0.74,4.64-1.02c1.57-0.28,3.12-0.47,4.68-0.7l9.34-1.35l9.36-1.25
				c24.97-3.19,50.02-5.71,75.08-8.06c12.53-1.14,25.07-2.24,37.61-3.24C761.8,393.17,774.35,392.23,786.91,391.52z"/>
		</g>
		<g>
			<path class="st27" d="M154.36,473.22c1.87-1.5,3.92-2.76,6.02-3.92c2.1-1.16,4.3-2.14,6.55-3c2.26-0.84,4.59-1.48,6.96-1.91
				c2.37-0.43,4.79-0.57,7.18-0.42c-1.19,0.18-2.38,0.21-3.54,0.47c-1.18,0.16-2.33,0.43-3.48,0.7c-2.29,0.6-4.56,1.25-6.77,2.1
				c-2.22,0.82-4.4,1.76-6.56,2.74c-1.08,0.5-2.15,1.02-3.2,1.57C156.46,472.07,155.42,472.65,154.36,473.22z"/>
		</g>
		<g>
			<path class="st32" d="M164.13,462.43c7.5-6.48,16.01-11.77,24.99-15.99l1.68-0.8l1.72-0.72l3.45-1.42l3.52-1.24l1.76-0.62
				l1.79-0.52l3.58-1.03c1.2-0.32,2.43-0.55,3.64-0.83l1.82-0.4c0.61-0.15,1.22-0.26,1.83-0.34l3.69-0.55
				c0.62-0.08,1.23-0.19,1.85-0.25l1.86-0.12l3.73-0.25c2.48-0.1,4.96-0.09,7.44-0.11c2.48,0.08,4.96,0.05,7.44,0.21l3.72,0.2
				l3.71,0.34c4.94,0.51,9.86,1.23,14.7,2.31c4.82,1.13,9.65,2.45,14.09,4.67c-4.53-2.01-9.36-3.22-14.19-4.19
				c-4.84-0.98-9.75-1.6-14.67-2.02c-4.92-0.42-9.86-0.57-14.8-0.61c-2.47,0.04-4.94,0.04-7.4,0.15l-3.68,0.27l-1.84,0.13
				c-0.61,0.06-1.22,0.18-1.83,0.26c-9.76,1.27-19.32,4.09-28.29,8.19c-4.53,1.97-8.88,4.33-13.11,6.87
				C172.09,456.54,167.98,459.31,164.13,462.43z"/>
		</g>
		<path class="st33" d="M267.93,420.29c1.03,1.03,17.47,19.53,20.55,26.72c3.08,7.19,5.14,15.42,5.14,15.42"/>
		<line class="st26" x1="144.13" y1="485.2" x2="165.16" y2="482.98"/>
		<path class="st26" d="M141.52,530.25c0,0,2.06-15.42,7.19-27.75c5.14-12.33,10.46-19.06,10.46-19.06"/>
		<g>
			<path class="st27" d="M171.32,474.76l-8.03,1.01c-1.33,0.19-2.66,0.35-3.98,0.58c-1.3,0.22-2.67,0.44-3.82,0.89
				c-0.14,0.06-0.27,0.12-0.36,0.18c-0.11,0.05-0.12,0.15-0.09,0.01c-0.01-0.16-0.04-0.09,0.07-0.02c0.09,0.07,0.25,0.13,0.37,0.2
				c0.51,0.27,1.16,0.4,1.79,0.51c1.28,0.21,2.62,0.22,3.95,0.23c1.34,0,2.68-0.07,4.02-0.17c1.34-0.07,2.68-0.21,4.03-0.33
				c-2.63,0.65-5.3,1.09-8.02,1.27c-1.36,0.1-2.73,0.1-4.12-0.07c-0.69-0.11-1.4-0.23-2.09-0.58c-0.18-0.1-0.34-0.15-0.52-0.28
				c-0.15-0.13-0.46-0.33-0.46-0.84c0.08-0.48,0.36-0.63,0.52-0.76c0.19-0.13,0.36-0.2,0.53-0.28c1.38-0.51,2.71-0.69,4.06-0.9
				c1.35-0.17,2.69-0.33,4.05-0.41C165.92,474.81,168.62,474.71,171.32,474.76z"/>
		</g>
		<g>
			<path class="st30" d="M159.53,559.02c-7.8,0.32-15.59,0.54-23.39,0.73l-23.39,0.47l-23.4,0.24l-11.7,0.04l-11.7-0.07L77.63,560
				l11.7-0.31l23.39-0.46l23.4-0.23C143.92,558.95,151.72,558.93,159.53,559.02z"/>
		</g>
		<g>
			<path class="st30" d="M81.91,543.61c4.7,0.06,9.39,0.41,14.07,0.9c4.68,0.5,9.33,1.23,13.95,2.13c4.6,0.99,9.19,2.13,13.61,3.82
				c2.2,0.85,4.37,1.81,6.41,3.02c2.01,1.23,3.96,2.65,5.4,4.52c-1.61-1.71-3.58-3.02-5.64-4.09c-2.05-1.1-4.23-1.97-6.43-2.72
				c-4.41-1.52-8.96-2.66-13.54-3.57c-4.58-0.98-9.21-1.68-13.85-2.35c-2.32-0.33-4.65-0.62-6.98-0.89
				C86.58,544.09,84.25,543.85,81.91,543.61z"/>
		</g>
		<g>
			<path class="st30" d="M860.59,394.54c-0.72,0.61-0.99,1.57-0.94,2.45l0.06,0.67l0.2,0.65c0.07,0.21,0.12,0.43,0.22,0.64l0.32,0.6
				c0.36,0.83,0.96,1.54,1.47,2.29c0.56,0.72,1.21,1.38,1.81,2.07c1.33,1.27,2.63,2.57,4.09,3.71c1.39,1.22,2.88,2.3,4.36,3.41
				c1.44,1.16,3.02,2.13,4.53,3.21c1.49,1.1,3.09,2.05,4.62,3.09l2.32,1.54c0.78,0.51,1.58,0.98,2.36,1.47
				c1.56,1.01,3.14,1.98,4.69,3.02c-3.3-1.72-6.62-3.42-9.78-5.38c-3.22-1.88-6.32-3.95-9.34-6.15c-1.48-1.13-2.99-2.24-4.38-3.5
				c-1.44-1.2-2.76-2.53-4.04-3.91c-0.58-0.74-1.21-1.44-1.76-2.21c-0.49-0.81-1.07-1.56-1.41-2.46l-0.28-0.65
				c-0.08-0.22-0.12-0.47-0.18-0.7l-0.16-0.7l-0.01-0.72C859.4,396.05,859.8,395.07,860.59,394.54z"/>
		</g>
		<g>
			<path class="st32" d="M738.61,455.23c3.2-3.56,6.73-6.82,10.41-9.89c3.69-3.06,7.56-5.91,11.6-8.48
				c8.1-5.13,16.91-9.23,26.25-11.62c4.66-1.2,9.43-1.97,14.24-2.21l1.8-0.09l1.81,0l1.81,0l1.8,0.09l3.6,0.19l1.8,0.1l1.79,0.19
				c9.56,0.91,19.03,2.97,28.06,6.31c4.47,1.77,8.89,3.7,13.06,6.11c4.19,2.35,8.23,4.99,12.01,7.96c3.8,2.95,7.39,6.16,10.76,9.58
				l2.48,2.61l2.36,2.74l2.17,2.89c0.7,0.98,1.34,2,2.02,2.99c5.16,8.12,9.01,17,11.93,26.13c1.46,4.57,2.68,9.21,3.63,13.91
				c0.96,4.69,1.7,9.43,2.13,14.2c-0.51-4.76-1.33-9.48-2.37-14.15c-1.03-4.67-2.32-9.28-3.86-13.81c-3-9.06-6.92-17.86-12.11-25.86
				c-0.68-0.98-1.33-1.98-2.02-2.94l-2.17-2.83l-2.34-2.69l-2.47-2.58c-3.35-3.39-6.93-6.56-10.7-9.47
				c-7.53-5.85-15.97-10.47-24.87-13.86c-8.92-3.34-18.3-5.41-27.79-6.34l-1.78-0.2l-1.79-0.1l-3.57-0.2l-1.79-0.1l-1.78-0.01
				l-1.78,0l-1.78,0.08c-4.75,0.24-9.48,0.95-14.1,2.09c-4.62,1.14-9.15,2.71-13.52,4.61c-4.37,1.92-8.59,4.17-12.65,6.68
				c-4.07,2.5-7.98,5.27-11.71,8.26C745.45,448.53,741.87,451.73,738.61,455.23z"/>
		</g>
		<polyline class="st33" points="841.57,440.07 853.71,434.68 889.5,423.28 		"/>
		<polyline class="st34" points="856.44,447.77 867.07,442.9 888.66,438.79 893.79,440.85 873.4,448.82 865.02,453.18 		"/>
		<path class="st26" d="M973.96,464.48c0,2.06,8.22,23.64,8.22,23.64s-1.03,4.11-4.11,5.14c-3.08,1.03-9.25,2.06-9.25,2.06
			s-6.17,8.22-8.22,13.36c-1.55,3.86-8.9,29.22-12.45,41.57c-1.17,4.05-4.73,6.95-8.93,7.26l-47.47,3.58l1.03-4.11"/>
		<path class="st35" d="M893.5,542.5l-0.73,14.48c0,0,38.02-15.42,45.22-20.55c7.19-5.14,13.36-6.17,16.44-4.11
			c0.65,0.44,1.12,0.83,1.46,1.17c0.82,0.84,2.12,0.96,3.12,0.34l5.71-3.57c0,0-2.06-10.28-7.19-10.28s-13.36-2.06-24.66,7.19
			c-11.3,9.25-28.78,15.42-34.94,16.44L893.5,542.5z"/>
		<g>
			<path class="st27" d="M955.46,489.15c3.87-0.37,7.75-0.33,11.62-0.06c1.93,0.16,3.87,0.36,5.78,0.75
				c0.96,0.19,1.91,0.42,2.84,0.74c0.46,0.18,0.92,0.36,1.35,0.61c0.42,0.23,0.88,0.56,1.01,1.04c-0.24-0.43-0.7-0.63-1.13-0.8
				c-0.44-0.17-0.91-0.28-1.37-0.38c-0.93-0.2-1.88-0.32-2.83-0.44c-1.9-0.22-3.82-0.39-5.74-0.52
				C963.16,489.78,959.32,489.56,955.46,489.15z"/>
		</g>
		<g>
			<polygon class="st36" points="973.96,477.84 962.65,481.95 962.65,486.06 976.01,487.09 			"/>
			<path class="st37" d="M973.96,477.84l-5.67,2.33c-1.85,0.74-3.66,1.49-5.48,2.19l0.29-0.41l0.05,4.11l-0.45-0.48
				c2.23,0.15,4.45,0.32,6.68,0.51c2.23,0.19,4.45,0.38,6.67,0.62l-0.4,0.46l-0.85-4.56L973.96,477.84z M973.96,477.84l1.22,4.48
				l1.2,4.69l0.12,0.48l-0.52-0.02c-2.23-0.1-4.46-0.25-6.69-0.41c-2.23-0.15-4.45-0.33-6.68-0.51l-0.45-0.04l0.01-0.44l0.05-4.11
				l0-0.31l0.28-0.1c1.95-0.67,3.9-1.29,5.82-1.92L973.96,477.84z"/>
		</g>
		<g>
			<path class="st27" d="M964.71,476.81c0.67-0.44,1.44-0.7,2.19-0.98c0.76-0.25,1.53-0.47,2.3-0.66c1.55-0.38,3.11-0.67,4.69-0.91
				l-0.42,0.6c-0.6-2.91-1.12-5.83-1.36-8.82c0.99,2.83,1.7,5.71,2.33,8.61l0.11,0.52l-0.53,0.08l-4.67,0.7l-2.33,0.37
				C966.24,476.43,965.47,476.59,964.71,476.81z"/>
		</g>
		<g>
			<path class="st38" d="M895.85,521.01c3.29-0.99,6.66-1.72,10.08-2.18c1.7-0.26,3.48-0.31,5.16-0.37
				c1.68-0.09,3.38-0.29,5.06-0.54c3.37-0.5,6.72-1.18,10.05-1.96c1.66-0.39,3.31-0.83,4.94-1.34c1.64-0.48,3.25-1.05,4.79-1.82
				c-2.91,1.87-6.25,2.92-9.54,3.91c-3.31,0.97-6.69,1.68-10.1,2.21c-1.71,0.23-3.43,0.44-5.17,0.5c-1.75,0.01-3.4,0.05-5.11,0.19
				c-1.7,0.14-3.4,0.35-5.09,0.6C899.23,520.41,897.54,520.71,895.85,521.01z"/>
		</g>
		<path class="st26" d="M966.76,417.21c0,1.03-5.14,11.3-5.14,11.3h5.14l-4.11,16.44l15.42,3.08"/>
		<path class="st39" d="M906.46,432c0,0,19.88-8.34,29.66-8.34s19.57,2.58,19.57,2.58l4.89-5.15c0,0-10.77-6.87-17.62-6.01
			S896,425.38,896,425.38L906.46,432z"/>
		<path class="st40" d="M900.89,427.09c0,0,32.3-9.44,39.15-8.59c6.85,0.86,15.66,4.29,15.66,4.29"/>
		<g>
			<path class="st41" d="M910,435c-0.43-0.3,17.71-8.54,24.9-8.54s19.53,4.11,19.53,4.11l-1.03,14.39c0,0-15.32-0.09-18.4,5.04"/>
			<path class="st42" d="M910,435c0.3-0.36,0.78-0.57,1.18-0.83c0.42-0.24,0.84-0.49,1.28-0.71c0.86-0.45,1.73-0.89,2.61-1.31
				c1.75-0.84,3.51-1.68,5.31-2.42c3.6-1.5,7.26-2.87,11.14-3.74c0.98-0.2,1.97-0.37,3.02-0.42c1.04-0.02,2.03,0.02,3.02,0.11
				c1.98,0.17,3.92,0.52,5.85,0.91c3.85,0.79,7.6,1.84,11.33,3.07l0.72,0.24l-0.05,0.76c-0.17,2.4-0.37,4.79-0.58,7.19
				c-0.2,2.4-0.4,4.79-0.64,7.19l-0.07,0.74l-0.71-0.02c-1.59-0.04-3.23,0.02-4.84,0.11c-1.62,0.09-3.23,0.24-4.83,0.48
				c-1.6,0.23-3.19,0.55-4.72,1.08c-0.76,0.27-1.51,0.58-2.19,1c-0.69,0.41-1.34,0.92-1.81,1.6c0.79-1.47,2.31-2.42,3.8-3.09
				c1.52-0.69,3.12-1.16,4.73-1.55c3.25-0.72,6.53-1.08,9.87-1.18l-0.78,0.73c0.11-2.4,0.25-4.8,0.39-7.2
				c0.13-2.4,0.28-4.8,0.45-7.2l0.66,0.99c-3.65-1.15-7.38-2.18-11.12-3c-1.87-0.41-3.76-0.73-5.63-0.96
				c-0.93-0.11-1.88-0.17-2.78-0.18c-0.89,0.02-1.82,0.14-2.75,0.31c-3.72,0.67-7.42,1.86-11.07,3.09
				c-1.82,0.64-3.66,1.26-5.46,1.95c-0.91,0.34-1.81,0.7-2.7,1.07l-1.34,0.56C910.84,434.54,910.33,434.69,910,435z"/>
		</g>
		<line class="st26" x1="550.14" y1="402.63" x2="563.96" y2="362.75"/>
		<line class="st26" x1="600.9" y1="395.63" x2="607.07" y2="368.91"/>
		<path class="st26" d="M568.01,399.74c0-1.03,9.25-33.91,9.25-33.91s0-4.11,2.06-13.36c2.06-9.25,8.22-10.28,8.22-10.28"/>
		<line class="st26" x1="582.4" y1="397.68" x2="591.07" y2="366.95"/>
		<line class="st26" x1="414.39" y1="354.35" x2="410.37" y2="362.58"/>
		<line class="st26" x1="426.19" y1="349.38" x2="419.99" y2="358.9"/>
		<path class="st26" d="M312.12,420.47c0,0,24.66-15.73,29.8-18.67"/>
		<path class="st26" d="M325.88,421c0,0,14.9-10.78,19.07-12.05"/>
		<path class="st26" d="M391.3,419.08c0,0,61.61-44.01,72.91-47.09s97.64-4.08,97.64-4.08"/>
		<path class="st26" d="M664.62,387.4c-4.11-3.08-57.89-13.46-57.89-13.46"/>
		<g>
			<path class="st43" d="M716.52,382.78c-7.77-1.3-15.49-2.88-23.22-4.41c-7.73-1.55-15.43-3.19-23.15-4.78l-23.09-5.03l-11.53-2.6
				l-11.51-2.7l11.61,2.22l11.59,2.33l23.14,4.8l23.1,5.01L716.52,382.78z"/>
		</g>
		<g>
			<path class="st43" d="M695.45,386.38l-29.22-7.66c-9.74-2.52-19.48-5.06-29.26-7.48c-9.76-2.47-19.55-4.8-29.36-7.04l-7.37-1.62
				c-2.46-0.53-4.93-0.99-7.4-1.49c-2.46-0.53-4.95-0.89-7.42-1.34c-1.24-0.24-2.48-0.39-3.73-0.54l-3.74-0.49
				c10.05,0.75,19.97,2.71,29.83,4.73c9.86,2.08,19.65,4.42,29.44,6.82c9.76,2.5,19.51,5.02,29.21,7.71
				C676.14,380.66,685.82,383.43,695.45,386.38z"/>
		</g>
		<g>
			<path class="st44" d="M491.45,546.18c9.43-2.09,18.91-3.98,28.37-5.9c9.48-1.86,18.97-3.65,28.48-5.38
				c9.5-1.75,19.04-3.3,28.6-4.77c9.56-1.43,19.13-2.82,28.83-3.54c2.43-0.15,4.86-0.26,7.36-0.12c0.63,0.04,1.26,0.1,1.91,0.21
				c0.33,0.06,0.66,0.13,1.01,0.24c0.35,0.11,0.71,0.24,1.13,0.57c0.1,0.08,0.21,0.2,0.31,0.31c0.1,0.15,0.2,0.29,0.25,0.47
				c0.03,0.09,0.05,0.19,0.07,0.28c0.01,0.07,0.01,0.11,0.02,0.17l0.02,0.32c-0.01,0.42-0.09,0.81-0.2,1.17
				c-0.23,0.71-0.57,1.31-0.94,1.86c-1.51,2.15-3.41,3.75-5.33,5.29c-1.94,1.52-3.97,2.88-6.04,4.17
				c-4.15,2.57-8.47,4.82-12.91,6.82c-4.43,2-9,3.71-13.68,5.06c-4.68,1.33-9.48,2.35-14.38,2.61c-2.45,0.11-4.91,0.1-7.38-0.45
				c-0.61-0.16-1.23-0.33-1.83-0.65c-0.59-0.3-1.18-0.73-1.57-1.37c-0.41-0.64-0.46-1.44-0.34-2.1c0.12-0.68,0.39-1.28,0.7-1.84
				c1.3-2.19,3.1-3.87,4.91-5.49c1.83-1.6,3.76-3.08,5.72-4.49c3.93-2.83,8.01-5.43,12.2-7.84c-4.07,2.6-8.05,5.34-11.88,8.26
				c-1.91,1.47-3.77,2.99-5.53,4.63c-1.73,1.64-3.45,3.38-4.55,5.4c-0.52,0.99-0.84,2.14-0.32,2.93c0.51,0.8,1.64,1.23,2.74,1.47
				c2.26,0.46,4.68,0.43,7.05,0.28c4.75-0.34,9.44-1.43,14.02-2.83c9.12-2.89,17.95-6.87,26.06-11.94c2.02-1.28,3.99-2.62,5.85-4.1
				c1.83-1.47,3.65-3.07,4.9-4.89c0.3-0.45,0.55-0.92,0.69-1.36c0.07-0.22,0.1-0.43,0.11-0.61l-0.01-0.13l0-0.05
				c0,0.02,0,0.04,0.01,0.06c0.02,0.04,0.02,0.06,0.04,0.08c-0.01,0,0.01,0.01-0.01,0c-0.05-0.05-0.26-0.15-0.49-0.21
				c-0.23-0.07-0.49-0.12-0.76-0.17c-0.54-0.09-1.11-0.14-1.69-0.17c-2.33-0.12-4.73,0.01-7.12,0.16
				c-9.57,0.65-19.15,1.98-28.69,3.34c-9.55,1.38-19.07,2.97-28.61,4.48c-9.53,1.54-19.05,3.17-28.56,4.83L491.45,546.18z"/>
		</g>
		<g>
			<g>
				<path class="st1" d="M165.16,513.65c1.48,0.92,2.74,2.06,3.95,3.24c1.19,1.21,2.32,2.47,3.24,3.95
					c-1.48-0.92-2.74-2.05-3.95-3.24C167.21,516.38,166.08,515.12,165.16,513.65z"/>
			</g>
			<g>
				<path class="st1" d="M163.1,522.89c1.48,0.92,2.74,2.06,3.95,3.24c1.19,1.21,2.32,2.47,3.24,3.95
					c-1.48-0.92-2.74-2.05-3.95-3.24C165.16,525.63,164.02,524.37,163.1,522.89z"/>
			</g>
			<circle class="st45" cx="233.98" cy="530.6" r="72.1"/>
			<circle class="st46" cx="236.09" cy="530.57" r="56.52"/>
			<g>
				<circle class="st47" cx="235.64" cy="530.03" r="48.86"/>
				<path class="st1" d="M284.5,530.03c0.01,6.4-1.22,12.8-3.66,18.73c-2.43,5.93-6.04,11.37-10.55,15.93
					c-4.52,4.55-9.91,8.26-15.84,10.78c-5.92,2.53-12.36,3.86-18.82,3.93c-6.46,0.05-12.95-1.16-18.96-3.59
					c-6.01-2.43-11.57-6.04-16.2-10.62c-4.62-4.59-8.33-10.09-10.84-16.1c-2.52-6.01-3.83-12.53-3.87-19.05
					c0.03-6.53,1.34-13.04,3.86-19.05c2.51-6.01,6.23-11.52,10.84-16.1c4.62-4.58,10.18-8.19,16.19-10.62
					c6.02-2.43,12.5-3.64,18.96-3.59c6.46,0.07,12.9,1.41,18.82,3.93c5.93,2.51,11.32,6.22,15.84,10.78
					c4.52,4.56,8.13,10,10.55,15.93C283.28,517.23,284.51,523.64,284.5,530.03z M284.5,530.03c-0.04-6.4-1.32-12.78-3.79-18.67
					c-2.46-5.89-6.1-11.28-10.63-15.78c-4.54-4.49-9.98-8.02-15.87-10.4c-5.89-2.38-12.24-3.56-18.58-3.51
					c-6.33,0.07-12.63,1.38-18.43,3.86c-5.81,2.46-11.08,6.1-15.51,10.56c-4.42,4.46-7.96,9.8-10.34,15.6
					c-2.39,5.8-3.59,12.07-3.58,18.34c-0.01,6.27,1.2,12.54,3.58,18.34c2.38,5.81,5.91,11.14,10.34,15.6
					c4.42,4.46,9.7,8.1,15.51,10.56c5.8,2.48,12.1,3.78,18.44,3.86c6.33,0.05,12.69-1.13,18.58-3.51
					c5.89-2.38,11.34-5.91,15.87-10.4c4.52-4.5,8.16-9.89,10.63-15.78C283.18,542.81,284.46,536.43,284.5,530.03z"/>
			</g>
			<g>
				<circle class="st48" cx="235.92" cy="528.93" r="43.08"/>
				<path class="st1" d="M193.28,522.73c0.8-5.58,2.68-11.02,5.56-15.88c2.87-4.87,6.71-9.16,11.23-12.57
					c4.52-3.4,9.69-5.97,15.19-7.41c5.49-1.46,11.28-1.81,16.94-1.06c5.65,0.77,11.17,2.64,16.12,5.53
					c4.95,2.88,9.35,6.74,12.82,11.33c3.46,4.6,6,9.88,7.44,15.46c1.44,5.58,1.76,11.44,0.97,17.16
					c-0.86,5.71-2.84,11.24-5.81,16.17c-2.97,4.94-6.92,9.28-11.54,12.7c-4.63,3.42-9.95,5.86-15.52,7.21
					c-5.57,1.35-11.39,1.58-17.03,0.7c-5.64-0.89-11.08-2.88-15.93-5.85c-4.86-2.95-9.08-6.89-12.44-11.44
					c-3.36-4.55-5.82-9.76-7.18-15.25C192.72,534.05,192.46,528.31,193.28,522.73z M193.28,522.73c-0.78,5.59-0.47,11.32,0.95,16.77
					c1.4,5.45,3.9,10.61,7.27,15.11c3.39,4.49,7.7,8.25,12.53,11.07c4.84,2.82,10.23,4.64,15.75,5.4
					c5.53,0.73,11.18,0.38,16.55-1.04c5.37-1.41,10.42-3.93,14.83-7.25c4.41-3.33,8.17-7.52,10.97-12.28
					c2.81-4.75,4.64-10.05,5.43-15.51c0.81-5.45,0.55-11.06-0.78-16.42c-1.33-5.35-3.73-10.45-7.01-14.89
					c-3.28-4.45-7.41-8.29-12.15-11.18c-4.73-2.9-10.06-4.84-15.56-5.71c-5.51-0.85-11.2-0.64-16.64,0.68
					c-5.44,1.32-10.64,3.7-15.17,7.04c-4.52,3.34-8.38,7.58-11.28,12.41C196.06,511.75,194.13,517.15,193.28,522.73z"/>
			</g>
			<circle class="st49" cx="237.43" cy="532.09" r="42.43"/>
			<g>
				<circle class="st50" cx="237.36" cy="531.32" r="24.73"/>
				<path class="st51" d="M212.89,527.76c0.9-6.42,4.42-12.42,9.6-16.37c5.15-4,11.94-5.89,18.5-5.03
					c6.56,0.81,12.8,4.33,16.88,9.66c2.03,2.66,3.55,5.73,4.39,8.99c0.84,3.26,1.03,6.68,0.56,10.02c-0.5,3.33-1.65,6.56-3.39,9.44
					c-1.73,2.88-4.07,5.39-6.77,7.37c-5.43,3.96-12.42,5.55-18.94,4.46c-6.54-1.05-12.51-4.8-16.3-10.1
					C213.58,540.92,211.92,534.17,212.89,527.76z M212.89,527.76c-0.45,3.21-0.27,6.5,0.54,9.63c0.81,3.13,2.28,6.08,4.22,8.64
					c3.92,5.13,9.92,8.5,16.22,9.27c6.31,0.82,12.82-1.01,17.76-4.85c4.97-3.8,8.35-9.55,9.21-15.72
					c0.93-6.16-0.66-12.63-4.35-17.69c-3.64-5.09-9.37-8.69-15.65-9.71c-6.26-1.05-12.97,0.47-18.19,4.27
					c-2.6,1.9-4.84,4.31-6.51,7.08C214.48,521.45,213.37,524.55,212.89,527.76z"/>
			</g>
			<circle class="st52" cx="235.29" cy="529.27" r="8.16"/>
			<g>
				<g>
					<path class="st53" d="M197.3,570.62c5.75-5.26,11.46-10.53,17.09-15.88c2.79-2.7,5.59-5.39,8.22-8.21
						c1.31-1.41,2.62-2.83,3.79-4.32c0.59-0.74,1.14-1.5,1.6-2.28c0.22-0.38,0.43-0.78,0.55-1.13c0.06-0.18,0.09-0.33,0.1-0.45
						c-0.01-0.09-0.01-0.14,0-0.08c0.04,0.01-0.3-0.21-0.67-0.29c-0.38-0.1-0.82-0.17-1.27-0.21c-0.9-0.09-1.85-0.08-2.79-0.06
						c-1.9,0.05-3.82,0.24-5.73,0.45c-3.84,0.4-7.67,1.01-11.51,1.61c-7.66,1.26-15.32,2.62-22.98,4.01
						c7.49-2.15,15.06-4.02,22.71-5.55c3.82-0.78,7.67-1.43,11.56-1.95c1.95-0.25,3.9-0.44,5.89-0.52c1-0.03,2-0.05,3.04,0.04
						c0.52,0.04,1.05,0.11,1.61,0.26c0.28,0.07,0.57,0.16,0.88,0.32c0.3,0.14,0.66,0.38,0.94,0.78c0.31,0.46,0.33,0.93,0.33,1.32
						c-0.03,0.37-0.11,0.69-0.21,0.97c-0.2,0.57-0.46,1.04-0.73,1.49c-0.54,0.9-1.14,1.71-1.77,2.49c-1.25,1.55-2.58,3-3.95,4.41
						c-2.75,2.79-5.6,5.47-8.53,8.05C209.61,561.06,203.54,565.95,197.3,570.62z"/>
				</g>
				<g>
					<path class="st53" d="M185.72,508.18c6.49,3.57,13,7.1,19.57,10.47c3.3,1.65,6.59,3.31,9.96,4.74c1.68,0.71,3.38,1.4,5.09,1.93
						c0.85,0.26,1.72,0.49,2.54,0.6c0.41,0.06,0.82,0.08,1.16,0.05c0.35-0.03,0.6-0.14,0.64-0.2c0.05-0.04,0.15-0.28,0.16-0.63
						c0.01-0.34-0.02-0.74-0.11-1.15c-0.15-0.82-0.43-1.67-0.73-2.51c-0.62-1.68-1.39-3.34-2.2-4.98c-1.6-3.29-3.44-6.49-5.27-9.7
						c-3.72-6.37-7.59-12.69-11.5-18.98c4.55,5.85,8.86,11.89,12.84,18.17c2,3.13,3.88,6.34,5.62,9.65
						c0.86,1.66,1.66,3.36,2.34,5.15c0.33,0.9,0.64,1.81,0.84,2.81c0.1,0.5,0.17,1.02,0.15,1.61c-0.03,0.56-0.13,1.29-0.72,1.94
						c-0.62,0.6-1.34,0.72-1.9,0.78c-0.58,0.05-1.1,0-1.61-0.07c-1.01-0.15-1.94-0.41-2.85-0.69c-1.82-0.58-3.56-1.29-5.27-2.06
						c-3.4-1.56-6.71-3.27-9.94-5.1C198.07,516.4,191.81,512.42,185.72,508.18z"/>
				</g>
				<g>
					<path class="st53" d="M240.67,477c-1.33,6.83-2.62,13.67-3.78,20.5c-0.55,3.42-1.1,6.84-1.43,10.27
						c-0.17,1.71-0.32,3.42-0.33,5.11c-0.01,0.84,0.02,1.68,0.11,2.48c0.09,0.77,0.29,1.61,0.57,1.95c0.14,0.14,0.08,0.14,0.34,0.15
						c0.23,0,0.56-0.09,0.9-0.23c0.68-0.28,1.39-0.71,2.07-1.19c1.37-0.95,2.66-2.07,3.94-3.21c2.56-2.28,4.97-4.77,7.39-7.25
						c4.78-5.02,9.46-10.15,14.12-15.33c-4.05,5.67-8.35,11.16-12.97,16.39c-2.3,2.63-4.7,5.17-7.26,7.59
						c-1.29,1.21-2.63,2.36-4.1,3.42c-0.74,0.52-1.52,1.02-2.44,1.41c-0.47,0.19-0.98,0.36-1.62,0.38c-0.32,0.01-0.69-0.04-1.06-0.2
						c-0.37-0.17-0.68-0.43-0.87-0.7c-0.76-1.08-0.83-2.04-0.97-2.97c-0.1-0.93-0.11-1.83-0.1-2.73c0.04-1.79,0.19-3.55,0.41-5.29
						c0.45-3.49,1.05-6.93,1.78-10.34C236.78,490.38,238.59,483.65,240.67,477z"/>
				</g>
				<g>
					<path class="st53" d="M283.36,520.39c-6.59,0.94-13.18,1.87-19.73,2.87c-3.27,0.53-6.55,1.04-9.77,1.72
						c-1.61,0.34-3.22,0.68-4.77,1.14c-0.77,0.23-1.53,0.48-2.23,0.78c-0.34,0.15-0.67,0.32-0.92,0.5
						c-0.11,0.08-0.22,0.17-0.24,0.22c-0.06,0.08,0.03-0.05,0.01-0.12c-0.04-0.07,0.12,0.27,0.34,0.5c0.23,0.26,0.51,0.52,0.79,0.77
						c0.59,0.5,1.24,0.98,1.91,1.44c1.34,0.92,2.75,1.77,4.16,2.61c2.83,1.69,5.76,3.24,8.68,4.81l17.69,9.21
						c-6.23-2.35-12.37-4.94-18.39-7.82c-3.02-1.42-5.99-2.95-8.92-4.57c-1.47-0.82-2.9-1.69-4.32-2.63
						c-0.71-0.48-1.4-0.98-2.09-1.55c-0.34-0.29-0.68-0.59-1-0.96c-0.3-0.39-0.7-0.74-0.84-1.65c-0.06-0.47,0.17-1.03,0.39-1.27
						c0.23-0.29,0.45-0.46,0.67-0.63c0.44-0.3,0.86-0.5,1.28-0.68c0.83-0.35,1.66-0.61,2.48-0.85c1.65-0.46,3.29-0.81,4.95-1.11
						c3.3-0.58,6.61-1.05,9.93-1.41C270.05,520.98,276.7,520.56,283.36,520.39z"/>
				</g>
				<g>
					<path class="st53" d="M231.58,581.13c0.01-7.49,0.38-14.99,1.22-22.45c0.41-3.74,0.98-7.46,1.78-11.16
						c0.41-1.85,0.9-3.69,1.57-5.52c0.34-0.91,0.72-1.82,1.24-2.7c0.54-0.86,1.13-1.82,2.39-2.4c0.63-0.28,1.42-0.29,2.03-0.1
						c0.62,0.19,1.12,0.5,1.55,0.83c0.85,0.68,1.5,1.45,2.09,2.24c1.16,1.59,2.1,3.26,2.95,4.95c1.68,3.41,3.1,6.9,4.37,10.44
						c2.56,7.07,4.63,14.28,6.34,21.58c-1.25-3.53-2.46-7.07-3.78-10.57c-1.28-3.51-2.62-7-4.01-10.45
						c-1.43-3.44-2.87-6.87-4.6-10.13c-0.86-1.62-1.77-3.23-2.83-4.65c-0.53-0.71-1.12-1.36-1.73-1.85
						c-0.31-0.23-0.62-0.41-0.9-0.49c-0.28-0.08-0.48-0.06-0.71,0.03c-0.48,0.18-1.04,0.84-1.46,1.56
						c-0.43,0.73-0.79,1.55-1.11,2.39c-0.64,1.68-1.12,3.46-1.56,5.25c-0.88,3.59-1.48,7.26-2.07,10.94
						C233.24,566.26,232.36,573.68,231.58,581.13z"/>
				</g>
			</g>
			<g>
				<g>
					<path class="st54" d="M209.37,483.81l9.88,15.91c1.68,2.62,3.33,5.26,5.12,7.78c0.89,1.26,1.79,2.52,2.77,3.65
						c0.48,0.55,1.02,1.12,1.47,1.41c0.1,0.07,0.2,0.1,0.16,0.09c-0.01,0-0.12-0.01-0.2,0.03c-0.03,0.01-0.07,0.02-0.09,0.05
						c0,0,0,0,0,0c0.06-0.05,0.26-0.38,0.39-0.67c0.56-1.28,0.96-2.8,1.33-4.28c0.37-1.5,0.67-3.01,0.98-4.53
						c0.63-3.04,1.15-6.11,1.7-9.18l3.2-18.46c-0.32,6.25-0.86,12.48-1.66,18.69c-0.38,3.11-0.86,6.2-1.39,9.3
						c-0.27,1.55-0.59,3.09-0.94,4.63c-0.37,1.55-0.73,3.07-1.41,4.66c-0.21,0.41-0.36,0.8-0.85,1.3l-0.23,0.19
						c-0.11,0.07-0.23,0.13-0.35,0.18c-0.27,0.09-0.58,0.11-0.78,0.07c-0.43-0.08-0.69-0.23-0.91-0.37
						c-0.85-0.58-1.36-1.19-1.9-1.81c-1.05-1.25-1.97-2.54-2.84-3.85c-1.73-2.64-3.36-5.32-4.9-8.05
						C214.83,495.08,212,489.5,209.37,483.81z"/>
				</g>
				<g>
					<path class="st54" d="M268.16,492.72c-3.18,4.49-6.4,8.94-9.62,13.37c-1.59,2.23-3.21,4.44-4.74,6.69
						c-0.76,1.13-1.53,2.25-2.22,3.39c-0.34,0.57-0.68,1.15-0.93,1.71c-0.12,0.26-0.23,0.58-0.24,0.66c-0.01,0.02,0,0,0-0.02
						l-0.01-0.03c0-0.04-0.01-0.07-0.02-0.11c-0.03-0.13-0.22-0.33-0.22-0.31c-0.07-0.04,0.04,0.02,0.15,0.04
						c0.49,0.12,1.18,0.17,1.83,0.19c0.66,0.02,1.33,0.02,2.01,0.01c1.35-0.02,2.71-0.1,4.07-0.17c2.73-0.13,5.46-0.36,8.19-0.54
						c5.46-0.42,10.94-0.81,16.44-1.14c-5.39,1.1-10.82,2.01-16.28,2.69c-2.73,0.37-5.47,0.63-8.22,0.88
						c-1.38,0.11-2.76,0.19-4.15,0.23c-0.7,0.02-1.4,0.03-2.11,0.01c-0.72-0.03-1.41-0.04-2.26-0.23c-0.22-0.06-0.45-0.11-0.8-0.34
						c-0.14-0.08-0.46-0.4-0.54-0.7c-0.02-0.08-0.04-0.16-0.06-0.23l-0.01-0.16c0-0.11,0-0.22,0.01-0.28
						c0.09-0.6,0.26-0.92,0.42-1.28c0.33-0.69,0.69-1.29,1.06-1.9c0.75-1.2,1.53-2.34,2.34-3.46c1.64-2.23,3.3-4.42,5.05-6.55
						C260.75,500.87,264.38,496.73,268.16,492.72z"/>
				</g>
				<g>
					<path class="st54" d="M278.23,550.61c-4.91-1.69-9.77-3.51-14.62-5.3c-2.44-0.87-4.85-1.79-7.29-2.59
						c-1.22-0.4-2.43-0.81-3.64-1.13c-0.59-0.15-1.23-0.3-1.69-0.33l-0.14,0c-0.04,0,0.05,0.01,0.07-0.02l0.02-0.02
						c0.05-0.02,0.1-0.05,0.14-0.09c0.09-0.09,0.12-0.13,0.15-0.17c0.03-0.07,0.04-0.08,0.04-0.08c0.01-0.01,0-0.04,0-0.01
						c-0.01,0.09,0,0.39,0.05,0.66c0.18,1.14,0.55,2.39,0.93,3.6c0.38,1.22,0.81,2.43,1.23,3.65c0.84,2.44,1.76,4.85,2.65,7.28
						c1.81,4.85,3.64,9.7,5.35,14.6c-2.48-4.57-4.71-9.26-6.8-14.02c-1.06-2.37-2.03-4.79-2.98-7.21c-0.47-1.22-0.9-2.45-1.31-3.7
						c-0.4-1.26-0.81-2.49-1.04-3.91c-0.04-0.37-0.1-0.72-0.03-1.28c0-0.06,0.03-0.16,0.06-0.25c0.02-0.08,0.05-0.17,0.13-0.31
						c0.07-0.12,0.13-0.23,0.3-0.36c0.07-0.06,0.15-0.12,0.24-0.16l0.14-0.05c0.17-0.06,0.42-0.11,0.54-0.11l0.35,0
						c0.84,0.06,1.45,0.25,2.12,0.42c1.29,0.36,2.53,0.78,3.76,1.24c2.45,0.92,4.86,1.88,7.24,2.93
						C268.95,545.94,273.65,548.16,278.23,550.61z"/>
				</g>
				<g>
					<path class="st54" d="M227.87,580.42l0.94-16.72c0.12-2.78,0.27-5.56,0.27-8.32c0-1.38,0-2.76-0.09-4.1
						c-0.05-0.67-0.12-1.34-0.24-1.95c-0.06-0.3-0.14-0.59-0.23-0.79c-0.04-0.1-0.09-0.16-0.08-0.15c0.01,0.01,0.04,0.04,0.12,0.08
						c0.05,0.03,0.13,0.02,0.11,0.03c-0.01-0.01-0.31,0.07-0.56,0.19c-0.26,0.12-0.54,0.28-0.81,0.45c-0.55,0.34-1.1,0.73-1.64,1.14
						c-1.09,0.82-2.14,1.71-3.19,2.61c-2.11,1.79-4.14,3.69-6.2,5.56l-12.26,11.41c3.54-4.33,7.26-8.52,11.17-12.53
						c1.94-2.02,3.96-3.96,6.04-5.87c1.04-0.95,2.12-1.86,3.25-2.74c0.57-0.44,1.15-0.87,1.78-1.27c0.31-0.2,0.64-0.39,1.01-0.57
						c0.38-0.17,0.74-0.37,1.43-0.39c0.15-0.01,0.41,0.03,0.62,0.12c0.24,0.1,0.41,0.23,0.54,0.37c0.25,0.27,0.38,0.51,0.48,0.73
						c0.19,0.44,0.28,0.83,0.36,1.21c0.15,0.76,0.21,1.49,0.25,2.21c0.08,1.44,0.09,2.86,0.03,4.27c-0.11,2.82-0.31,5.62-0.61,8.4
						C229.8,569.39,228.95,574.93,227.87,580.42z"/>
				</g>
				<g>
					<path class="st54" d="M186.77,540.34c5.69-1.44,11.38-2.85,17.02-4.34c2.81-0.78,5.64-1.53,8.33-2.51
						c0.67-0.25,1.34-0.5,1.96-0.78c0.62-0.26,1.27-0.64,1.53-0.91c0.07-0.05-0.01-0.02,0.01-0.02c0,0.01,0,0.01,0.01,0.02
						c-0.02,0.04-0.03,0.1-0.03,0.15c-0.01,0.13,0.03,0.09-0.04,0c-0.1-0.17-0.32-0.42-0.54-0.64c-0.47-0.46-1.02-0.9-1.58-1.33
						c-2.26-1.74-4.74-3.29-7.2-4.84c-2.46-1.56-4.98-3.04-7.48-4.55c-5.03-2.98-10.06-5.98-15.08-9.03
						c5.38,2.35,10.67,4.9,15.85,7.67c5.18,2.78,10.31,5.6,15.14,9.17c0.6,0.47,1.18,0.95,1.76,1.52c0.29,0.3,0.57,0.6,0.84,1.06
						c0.13,0.22,0.29,0.54,0.3,1.03c-0.01,0.14-0.03,0.28-0.07,0.42c-0.04,0.09-0.08,0.17-0.13,0.25c-0.09,0.15-0.21,0.37-0.3,0.43
						c-0.4,0.41-0.77,0.63-1.13,0.84c-0.36,0.2-0.72,0.37-1.07,0.53c-0.71,0.31-1.42,0.57-2.13,0.8c-2.85,0.91-5.7,1.62-8.59,2.23
						C198.4,538.75,192.6,539.66,186.77,540.34z"/>
				</g>
			</g>
			<g>
				<path class="st1" d="M167.24,505.4c1.48,0.92,2.74,2.06,3.95,3.24c1.19,1.21,2.32,2.47,3.24,3.95
					c-1.48-0.92-2.74-2.05-3.95-3.24C169.3,508.14,168.16,506.87,167.24,505.4z"/>
			</g>
			<g>
				<path class="st1" d="M175.46,489.98c1.48,0.92,2.74,2.06,3.95,3.24c1.19,1.21,2.32,2.47,3.24,3.95
					c-1.48-0.92-2.74-2.05-3.95-3.24C177.52,492.72,176.38,491.46,175.46,489.98z"/>
			</g>
			<g>
				<path class="st1" d="M180.6,482.79c1.48,0.92,2.74,2.06,3.95,3.24c1.19,1.21,2.32,2.47,3.24,3.95
					c-1.48-0.92-2.74-2.05-3.95-3.24C182.66,485.53,181.52,484.26,180.6,482.79z"/>
			</g>
			<g>
				<path class="st1" d="M170.32,497.17c1.48,0.92,2.74,2.06,3.95,3.24c1.19,1.21,2.32,2.47,3.24,3.95
					c-1.48-0.92-2.74-2.05-3.95-3.24C172.38,499.91,171.24,498.65,170.32,497.17z"/>
			</g>
			<g>
				<path class="st1" d="M268.98,578.36c1.48,0.92,2.74,2.06,3.95,3.24c1.19,1.21,2.32,2.47,3.24,3.95
					c-1.48-0.92-2.74-2.05-3.95-3.24C271.04,581.1,269.9,579.84,268.98,578.36z"/>
			</g>
			<g>
				<path class="st1" d="M276.17,573.22c1.48,0.92,2.74,2.06,3.95,3.24c1.19,1.21,2.32,2.47,3.24,3.95
					c-1.48-0.92-2.74-2.05-3.95-3.24C278.23,575.96,277.1,574.7,276.17,573.22z"/>
			</g>
			<g>
				<path class="st1" d="M282.34,567.06c1.48,0.92,2.74,2.06,3.95,3.24c1.19,1.21,2.32,2.47,3.24,3.95
					c-1.48-0.92-2.74-2.05-3.95-3.24C284.4,569.8,283.26,568.54,282.34,567.06z"/>
			</g>
			<g>
				<path class="st1" d="M287.48,558.84c1.48,0.92,2.74,2.06,3.95,3.24c1.19,1.21,2.32,2.47,3.24,3.95
					c-1.48-0.92-2.74-2.05-3.95-3.24C289.54,561.58,288.4,560.31,287.48,558.84z"/>
			</g>
			<g>
				<path class="st1" d="M262.81,583.5c1.48,0.92,2.74,2.06,3.95,3.24c1.19,1.21,2.32,2.47,3.24,3.95
					c-1.48-0.92-2.74-2.05-3.95-3.24C264.87,586.24,263.74,584.98,262.81,583.5z"/>
			</g>
			<g>
				<path class="st1" d="M255.62,587.61c1.48,0.92,2.74,2.06,3.95,3.24c1.19,1.21,2.32,2.47,3.24,3.95
					c-1.48-0.92-2.74-2.05-3.95-3.24C257.68,590.35,256.54,589.09,255.62,587.61z"/>
			</g>
			<g>
				<path class="st1" d="M248.43,590.7c1.48,0.92,2.74,2.06,3.95,3.24c1.19,1.21,2.32,2.47,3.24,3.95
					c-1.48-0.92-2.74-2.05-3.95-3.24C250.48,593.43,249.35,592.17,248.43,590.7z"/>
			</g>
			<g>
				<path class="st1" d="M240.21,592.75c1.48,0.92,2.74,2.06,3.95,3.24c1.19,1.21,2.32,2.47,3.24,3.95
					c-1.48-0.92-2.74-2.05-3.95-3.24C242.26,595.49,241.13,594.23,240.21,592.75z"/>
			</g>
			<g>
				<path class="st1" d="M230.96,594.81c1.48,0.92,2.74,2.06,3.95,3.24c1.19,1.21,2.32,2.47,3.24,3.95
					c-1.48-0.92-2.74-2.05-3.95-3.24C233.01,597.55,231.88,596.28,230.96,594.81z"/>
			</g>
			<g>
				<path class="st55" d="M186.18,521.7c0.93-6.51,3.14-12.85,6.5-18.52c3.35-5.67,7.83-10.68,13.1-14.65
					c5.27-3.96,11.31-6.94,17.72-8.62c6.4-1.69,13.15-2.09,19.73-1.21c6.58,0.91,13,3.1,18.76,6.46c5.76,3.36,10.87,7.86,14.9,13.2
					c4.02,5.35,6.98,11.5,8.65,17.99c1.68,6.49,2.04,13.31,1.11,19.96c-0.99,6.64-3.29,13.07-6.75,18.81
					c-3.45,5.75-8.04,10.8-13.41,14.78c-5.38,3.98-11.57,6.83-18.05,8.41c-6.48,1.58-13.26,1.86-19.83,0.85
					c-6.57-1.03-12.92-3.34-18.57-6.78c-5.66-3.43-10.6-8.01-14.52-13.31c-3.92-5.31-6.79-11.38-8.39-17.77
					C185.53,534.91,185.22,528.21,186.18,521.7z M186.18,521.7c-0.91,6.52-0.55,13.21,1.09,19.57c1.63,6.36,4.54,12.39,8.48,17.64
					c3.95,5.24,8.97,9.65,14.61,12.94c5.65,3.3,11.94,5.44,18.39,6.33c6.46,0.86,13.07,0.47,19.34-1.19
					c6.28-1.64,12.19-4.57,17.36-8.45c5.17-3.89,9.56-8.8,12.84-14.36c3.29-5.56,5.44-11.76,6.37-18.15
					c0.94-6.38,0.64-12.95-0.93-19.21c-1.56-6.27-4.37-12.22-8.22-17.42c-3.84-5.2-8.68-9.68-14.24-13.05
					c-5.54-3.38-11.77-5.64-18.2-6.65c-6.44-0.99-13.08-0.72-19.44,0.83c-6.35,1.55-12.42,4.34-17.7,8.25
					c-5.27,3.91-9.77,8.86-13.15,14.49C189.41,508.88,187.16,515.19,186.18,521.7z"/>
			</g>
			<circle class="st56" cx="236.09" cy="530.57" r="56.52"/>
			<g>
				<path class="st57" d="M175.5,557.5c2.01,3.89,4.36,7.54,6.96,10.99c2.6,3.45,5.44,6.7,8.59,9.62c3.11,2.96,6.46,5.68,10.08,8.03
					c1.77,1.25,3.66,2.28,5.54,3.36c0.92,0.59,1.92,1.01,2.89,1.5c0.98,0.48,1.95,0.98,2.93,1.49c-1.05-0.31-2.1-0.63-3.14-0.98
					c-1.04-0.34-2.11-0.66-3.1-1.13l-3.02-1.35c-0.51-0.21-1-0.47-1.47-0.75l-1.44-0.82c-1.97-1.02-3.74-2.35-5.57-3.61
					c-0.91-0.64-1.72-1.4-2.59-2.09l-1.28-1.06l-1.21-1.15c-0.78-0.79-1.61-1.52-2.34-2.36l-2.22-2.48l-2.04-2.62
					c-0.67-0.88-1.27-1.81-1.89-2.73C178.78,565.69,176.74,561.72,175.5,557.5z"/>
			</g>
			<g>
				<path class="st57" d="M243.5,466.5c6.35,0.66,12.54,2.56,18.37,5.18c5.84,2.63,11.27,6.17,16.1,10.4
					c4.79,4.27,8.92,9.28,12.2,14.78c0.78,1.4,1.61,2.77,2.28,4.22c0.35,0.72,0.72,1.43,1.05,2.15l0.94,2.2
					c0.65,1.46,1.12,2.99,1.67,4.49c0.52,1.51,0.92,3.05,1.38,4.58c-2.02-6.04-4.64-11.87-7.98-17.25
					c-3.38-5.35-7.44-10.28-12.21-14.43c-2.36-2.1-4.86-4.04-7.5-5.79c-2.64-1.75-5.42-3.27-8.26-4.66
					c-2.85-1.38-5.79-2.58-8.81-3.55C249.73,467.82,246.64,467.01,243.5,466.5z"/>
			</g>
		</g>
		<g>
			<g>
				<path class="st1" d="M738.97,500.11c1.52,0.96,2.82,2.13,4.06,3.36c1.23,1.25,2.4,2.55,3.36,4.06
					c-1.52-0.96-2.82-2.13-4.06-3.36C741.1,502.92,739.92,501.62,738.97,500.11z"/>
			</g>
			<g>
				<path class="st1" d="M736.84,509.65c1.52,0.96,2.82,2.13,4.06,3.36c1.23,1.25,2.4,2.55,3.36,4.06
					c-1.52-0.96-2.82-2.13-4.06-3.36C738.98,512.47,737.8,511.17,736.84,509.65z"/>
			</g>
			<circle class="st45" cx="809.98" cy="517.6" r="74.4"/>
			<circle class="st46" cx="812.16" cy="517.57" r="58.32"/>
			<g>
				<circle class="st47" cx="811.69" cy="517.02" r="50.42"/>
				<path class="st1" d="M862.11,517.02c0.01,6.6-1.26,13.21-3.77,19.32c-2.5,6.12-6.23,11.73-10.89,16.43
					c-4.66,4.69-10.22,8.52-16.34,11.11c-6.11,2.6-12.75,3.98-19.41,4.05c-6.66,0.05-13.35-1.2-19.56-3.71
					c-6.2-2.5-11.93-6.23-16.7-10.95c-4.76-4.73-8.59-10.4-11.18-16.61c-2.6-6.2-3.95-12.92-3.98-19.65
					c0.03-6.73,1.38-13.45,3.98-19.65c2.59-6.2,6.42-11.88,11.18-16.61c4.77-4.73,10.5-8.45,16.7-10.96
					c6.2-2.51,12.89-3.76,19.56-3.71c6.67,0.07,13.3,1.45,19.41,4.05c6.12,2.59,11.68,6.42,16.34,11.12
					c4.66,4.7,8.39,10.32,10.89,16.43C860.85,503.81,862.12,510.41,862.11,517.02z M862.11,517.02c-0.04-6.6-1.36-13.19-3.91-19.27
					c-2.54-6.08-6.29-11.64-10.96-16.28c-4.68-4.63-10.3-8.28-16.38-10.74c-6.08-2.46-12.64-3.68-19.17-3.63
					c-6.54,0.07-13.04,1.42-19.03,3.97c-6,2.54-11.44,6.29-16.02,10.9c-4.57,4.61-8.22,10.11-10.67,16.11
					c-2.46,5.99-3.71,12.47-3.7,18.94c-0.01,6.47,1.24,12.95,3.7,18.94c2.45,5.99,6.11,11.5,10.67,16.11
					c4.57,4.61,10.02,8.36,16.02,10.9c5.99,2.55,12.49,3.9,19.03,3.97c6.54,0.05,13.09-1.17,19.17-3.63
					c6.08-2.46,11.7-6.11,16.38-10.74c4.67-4.64,8.42-10.2,10.96-16.28C860.75,530.2,862.07,523.62,862.11,517.02z"/>
			</g>
			<g>
				<circle class="st48" cx="811.98" cy="515.88" r="44.45"/>
				<path class="st1" d="M767.99,509.48c0.82-5.76,2.77-11.37,5.74-16.38c2.96-5.02,6.92-9.45,11.59-12.96
					c4.66-3.51,10-6.15,15.67-7.64c5.66-1.51,11.64-1.87,17.47-1.09c5.83,0.8,11.52,2.73,16.62,5.71c5.1,2.97,9.64,6.95,13.22,11.69
					c3.56,4.74,6.19,10.19,7.67,15.94c1.49,5.75,1.82,11.8,0.99,17.69c-0.88,5.88-2.93,11.59-5.99,16.68
					c-3.06,5.09-7.13,9.57-11.9,13.1c-4.77,3.53-10.26,6.04-16,7.44c-5.74,1.4-11.75,1.63-17.56,0.73
					c-5.81-0.92-11.43-2.97-16.44-6.03c-5.01-3.05-9.37-7.1-12.84-11.79c-3.47-4.7-6.01-10.07-7.41-15.73
					C767.41,521.16,767.14,515.24,767.99,509.48z M767.99,509.48c-0.8,5.76-0.48,11.68,0.97,17.3c1.45,5.63,4.02,10.95,7.5,15.59
					c3.5,4.63,7.94,8.52,12.93,11.43c4.99,2.91,10.55,4.8,16.26,5.57c5.71,0.76,11.54,0.4,17.08-1.07
					c5.54-1.46,10.76-4.05,15.32-7.48c4.56-3.44,8.43-7.77,11.32-12.68c2.9-4.9,4.8-10.38,5.61-16.01
					c0.83-5.63,0.57-11.42-0.81-16.95c-1.37-5.53-3.85-10.78-7.24-15.38c-3.39-4.59-7.65-8.56-12.55-11.53
					c-4.89-2.99-10.38-4.99-16.07-5.89c-5.69-0.88-11.56-0.65-17.17,0.71c-5.61,1.36-10.98,3.82-15.65,7.27
					c-4.66,3.45-8.64,7.83-11.63,12.81C770.85,498.15,768.86,503.73,767.99,509.48z"/>
			</g>
			<circle class="st49" cx="813.54" cy="519.13" r="43.78"/>
			<g>
				<circle class="st50" cx="813.47" cy="518.34" r="25.52"/>
				<path class="st51" d="M788.22,514.67c0.93-6.63,4.56-12.82,9.91-16.89c5.31-4.12,12.32-6.07,19.09-5.18
					c6.77,0.84,13.2,4.47,17.4,9.97c2.09,2.75,3.65,5.91,4.52,9.27c0.87,3.36,1.06,6.89,0.58,10.32c-0.51,3.43-1.7,6.76-3.49,9.73
					c-1.79,2.97-4.19,5.56-6.98,7.6c-5.59,4.08-12.8,5.73-19.52,4.6c-6.74-1.08-12.9-4.94-16.82-10.41
					C788.94,528.25,787.22,521.28,788.22,514.67z M788.22,514.67c-0.46,3.31-0.28,6.7,0.55,9.93c0.84,3.23,2.35,6.27,4.36,8.91
					c4.05,5.29,10.23,8.78,16.74,9.58c6.51,0.85,13.24-1.03,18.34-4.99c5.14-3.92,8.63-9.86,9.52-16.23
					c0.96-6.36-0.69-13.05-4.5-18.27c-3.76-5.26-9.68-8.97-16.16-10.01c-6.47-1.08-13.39,0.5-18.78,4.42
					c-2.68,1.96-4.99,4.45-6.71,7.3C789.86,508.16,788.72,511.36,788.22,514.67z"/>
			</g>
			<circle class="st52" cx="811.33" cy="516.22" r="8.41"/>
			<g>
				<g>
					<path class="st53" d="M772.13,558.89c5.94-5.42,11.84-10.85,17.65-16.37c2.88-2.78,5.77-5.55,8.48-8.47
						c1.35-1.46,2.7-2.92,3.91-4.46c0.6-0.77,1.18-1.55,1.65-2.35c0.23-0.4,0.45-0.8,0.57-1.17c0.06-0.18,0.09-0.35,0.11-0.47
						c-0.01-0.1-0.02-0.15,0-0.1c0.03-0.01-0.32-0.23-0.71-0.31c-0.4-0.1-0.85-0.18-1.32-0.22c-0.93-0.09-1.91-0.09-2.89-0.06
						c-1.96,0.06-3.94,0.25-5.92,0.46c-3.96,0.42-7.92,1.05-11.87,1.67c-7.9,1.3-15.81,2.72-23.71,4.16
						c7.73-2.2,15.54-4.13,23.43-5.7c3.94-0.8,7.92-1.47,11.93-2.01c2.01-0.26,4.03-0.45,6.08-0.53c1.03-0.03,2.06-0.05,3.13,0.04
						c0.53,0.04,1.08,0.12,1.65,0.26c0.29,0.07,0.58,0.16,0.9,0.33c0.3,0.14,0.67,0.39,0.96,0.8c0.32,0.47,0.34,0.95,0.33,1.34
						c-0.03,0.37-0.12,0.7-0.22,0.99c-0.2,0.58-0.47,1.06-0.75,1.53c-0.56,0.93-1.18,1.76-1.82,2.56c-1.29,1.6-2.66,3.1-4.08,4.55
						c-2.84,2.88-5.77,5.64-8.8,8.3C784.82,549.01,778.56,554.07,772.13,558.89z"/>
				</g>
				<g>
					<path class="st53" d="M760.19,494.47c6.69,3.7,13.41,7.34,20.18,10.83c3.4,1.71,6.8,3.42,10.28,4.9
						c1.74,0.73,3.49,1.45,5.25,1.99c0.88,0.27,1.77,0.5,2.63,0.62c0.43,0.06,0.85,0.09,1.21,0.05c0.36-0.03,0.63-0.14,0.68-0.21
						c0.06-0.06,0.17-0.31,0.18-0.67c0.01-0.36-0.02-0.77-0.11-1.2c-0.15-0.85-0.44-1.73-0.75-2.59c-0.64-1.74-1.44-3.44-2.27-5.14
						c-1.66-3.4-3.55-6.7-5.44-10.01c-3.85-6.57-7.84-13.08-11.89-19.57c4.69,6.04,9.13,12.28,13.22,18.76
						c2.06,3.23,4,6.54,5.79,9.96c0.89,1.72,1.71,3.47,2.41,5.31c0.34,0.93,0.66,1.87,0.86,2.9c0.1,0.51,0.17,1.05,0.15,1.65
						c-0.03,0.58-0.13,1.32-0.73,1.98c-0.63,0.62-1.36,0.74-1.94,0.79c-0.59,0.05-1.13,0-1.65-0.08c-1.04-0.15-2-0.42-2.94-0.71
						c-1.88-0.6-3.67-1.33-5.43-2.13c-3.51-1.61-6.92-3.37-10.26-5.26C772.94,502.93,766.47,498.83,760.19,494.47z"/>
				</g>
				<g>
					<path class="st53" d="M816.88,462.29c-1.39,7.05-2.72,14.1-3.92,21.15c-0.57,3.53-1.14,7.06-1.49,10.59
						c-0.17,1.76-0.33,3.53-0.35,5.27c-0.01,0.87,0.02,1.73,0.11,2.56c0.09,0.8,0.3,1.67,0.6,2.03c0.15,0.15,0.1,0.16,0.37,0.17
						c0.24,0,0.59-0.09,0.94-0.23c0.71-0.3,1.44-0.74,2.14-1.23c1.41-0.98,2.75-2.14,4.07-3.32c2.65-2.36,5.13-4.93,7.62-7.49
						c4.93-5.18,9.76-10.49,14.55-15.84c-4.19,5.84-8.63,11.5-13.4,16.89c-2.37,2.71-4.86,5.33-7.49,7.83
						c-1.33,1.24-2.71,2.44-4.23,3.52c-0.77,0.54-1.57,1.05-2.51,1.46c-0.48,0.19-1,0.37-1.66,0.39c-0.33,0.01-0.71-0.04-1.08-0.21
						c-0.38-0.17-0.69-0.44-0.89-0.71c-0.78-1.1-0.85-2.09-1-3.05c-0.1-0.96-0.12-1.89-0.1-2.81c0.04-1.85,0.19-3.66,0.42-5.46
						c0.47-3.6,1.08-7.15,1.83-10.67C812.89,476.11,814.74,469.16,816.88,462.29z"/>
				</g>
				<g>
					<path class="st53" d="M860.93,507.06c-6.8,0.96-13.6,1.91-20.36,2.94c-3.38,0.55-6.76,1.07-10.09,1.77
						c-1.66,0.35-3.32,0.71-4.92,1.17c-0.8,0.23-1.59,0.49-2.3,0.81c-0.35,0.16-0.7,0.33-0.95,0.51c-0.12,0.09-0.23,0.18-0.25,0.23
						c-0.06,0.08,0.03-0.04,0.01-0.1c-0.04-0.06,0.13,0.3,0.36,0.54c0.24,0.27,0.52,0.53,0.82,0.79c0.61,0.52,1.28,1.01,1.97,1.49
						c1.38,0.95,2.84,1.82,4.3,2.69c2.92,1.74,5.95,3.34,8.96,4.96c6.06,3.19,12.16,6.33,18.26,9.48
						c-6.42-2.44-12.76-5.12-18.96-8.09c-3.11-1.47-6.17-3.04-9.2-4.71c-1.51-0.84-3-1.74-4.46-2.72c-0.73-0.49-1.45-1.01-2.15-1.59
						c-0.35-0.3-0.7-0.61-1.03-0.99c-0.31-0.4-0.72-0.76-0.86-1.68c-0.06-0.48,0.18-1.04,0.4-1.28c0.23-0.3,0.46-0.47,0.69-0.64
						c0.45-0.31,0.88-0.51,1.31-0.7c0.86-0.36,1.71-0.63,2.56-0.87c1.7-0.47,3.4-0.84,5.1-1.15c3.41-0.6,6.82-1.09,10.24-1.46
						C847.2,507.69,854.06,507.25,860.93,507.06z"/>
				</g>
				<g>
					<path class="st53" d="M807.5,569.74c0.02-7.73,0.41-15.46,1.29-23.16c0.43-3.85,1.01-7.69,1.84-11.51
						c0.42-1.91,0.93-3.81,1.62-5.69c0.35-0.94,0.75-1.87,1.27-2.78c0.55-0.89,1.17-1.87,2.45-2.46c0.64-0.29,1.45-0.3,2.08-0.1
						c0.64,0.19,1.15,0.52,1.59,0.86c0.87,0.7,1.54,1.49,2.15,2.31c1.2,1.64,2.16,3.36,3.04,5.11c1.73,3.51,3.2,7.11,4.51,10.76
						c2.64,7.29,4.78,14.73,6.56,22.25c-1.28-3.65-2.52-7.3-3.89-10.91c-1.32-3.62-2.69-7.22-4.13-10.79
						c-1.47-3.55-2.96-7.1-4.74-10.46c-0.89-1.68-1.82-3.33-2.92-4.8c-0.55-0.73-1.15-1.41-1.79-1.91
						c-0.32-0.24-0.65-0.43-0.94-0.51c-0.29-0.08-0.51-0.07-0.75,0.03c-0.51,0.2-1.08,0.88-1.52,1.62c-0.45,0.75-0.82,1.6-1.15,2.47
						c-0.66,1.74-1.15,3.58-1.61,5.43c-0.91,3.7-1.53,7.5-2.14,11.29C809.2,554.39,808.3,562.05,807.5,569.74z"/>
				</g>
			</g>
			<g>
				<g>
					<path class="st54" d="M784.59,469.33l10.18,16.43c1.73,2.71,3.44,5.43,5.28,8.03c0.92,1.3,1.84,2.6,2.85,3.77
						c0.49,0.57,1.05,1.16,1.53,1.46c0.11,0.08,0.21,0.1,0.18,0.09c-0.01,0-0.11-0.01-0.19,0.03c-0.03,0.01-0.06,0.02-0.09,0.04
						c0-0.01,0-0.01,0-0.01c0.07-0.06,0.28-0.4,0.41-0.7c0.58-1.32,1-2.9,1.37-4.42c0.38-1.54,0.7-3.11,1.02-4.68
						c0.65-3.14,1.18-6.31,1.75-9.47l3.28-19.05c-0.35,6.45-0.91,12.88-1.74,19.28c-0.39,3.21-0.89,6.4-1.44,9.59
						c-0.28,1.6-0.61,3.19-0.97,4.78c-0.39,1.6-0.76,3.17-1.46,4.8c-0.21,0.42-0.37,0.82-0.87,1.33l-0.23,0.19
						c-0.11,0.07-0.23,0.13-0.36,0.18c-0.27,0.1-0.58,0.11-0.79,0.07c-0.43-0.08-0.7-0.24-0.93-0.38c-0.87-0.59-1.39-1.22-1.96-1.86
						c-1.08-1.29-2.03-2.61-2.93-3.97c-1.79-2.72-3.47-5.48-5.06-8.3C790.23,480.94,787.31,475.18,784.59,469.33z"/>
				</g>
				<g>
					<path class="st54" d="M845.25,478.52c-3.29,4.63-6.62,9.22-9.95,13.78c-1.64,2.3-3.32,4.57-4.89,6.91
						c-0.78,1.16-1.58,2.32-2.29,3.5c-0.35,0.59-0.7,1.19-0.96,1.76c-0.13,0.27-0.24,0.6-0.25,0.7c-0.01,0.02,0,0,0-0.02l-0.01-0.03
						c0-0.04-0.01-0.07-0.02-0.11c-0.03-0.13-0.21-0.32-0.22-0.31c-0.06-0.04,0.05,0.02,0.17,0.04c0.51,0.12,1.23,0.17,1.89,0.2
						c0.68,0.02,1.38,0.02,2.07,0.01c1.39-0.02,2.8-0.1,4.2-0.17c2.81-0.13,5.63-0.37,8.45-0.56c5.64-0.44,11.29-0.85,16.96-1.2
						c-5.57,1.12-11.17,2.05-16.8,2.76c-2.82,0.38-5.64,0.65-8.48,0.9c-1.42,0.11-2.85,0.19-4.28,0.24
						c-0.72,0.02-1.44,0.03-2.18,0.01c-0.74-0.03-1.46-0.04-2.33-0.23c-0.22-0.06-0.46-0.11-0.81-0.34
						c-0.15-0.08-0.47-0.4-0.54-0.71c-0.02-0.08-0.04-0.16-0.06-0.24l-0.01-0.16c0-0.11,0-0.22,0.01-0.29
						c0.09-0.61,0.27-0.94,0.43-1.31c0.33-0.71,0.71-1.33,1.09-1.96c0.77-1.23,1.57-2.41,2.41-3.57c1.69-2.3,3.41-4.56,5.2-6.76
						C837.62,486.93,841.36,482.66,845.25,478.52z"/>
				</g>
				<g>
					<path class="st54" d="M855.64,538.25c-5.07-1.76-10.07-3.64-15.08-5.49c-2.51-0.9-5.01-1.85-7.52-2.68
						c-1.26-0.41-2.51-0.84-3.76-1.17c-0.61-0.16-1.27-0.31-1.75-0.34l-0.15,0c-0.04,0,0.05,0.01,0.06-0.02l0.02-0.02
						c0.05-0.02,0.1-0.05,0.14-0.08c0.09-0.09,0.12-0.13,0.15-0.17c0.03-0.07,0.03-0.08,0.04-0.08c0-0.01,0-0.03,0-0.01
						c-0.02,0.1,0,0.41,0.05,0.69c0.18,1.19,0.57,2.47,0.96,3.72c0.39,1.26,0.84,2.51,1.27,3.76c0.86,2.51,1.82,5,2.74,7.51
						c1.87,5,3.77,10,5.55,15.06c-2.54-4.72-4.84-9.56-6.99-14.47c-1.09-2.45-2.09-4.94-3.07-7.45c-0.48-1.26-0.93-2.53-1.36-3.82
						c-0.42-1.3-0.83-2.57-1.07-4.03c-0.04-0.38-0.11-0.74-0.03-1.31c0-0.06,0.04-0.17,0.06-0.25c0.03-0.08,0.05-0.18,0.13-0.31
						c0.07-0.12,0.13-0.23,0.3-0.36c0.07-0.06,0.16-0.12,0.24-0.16l0.14-0.05c0.17-0.06,0.42-0.11,0.55-0.12l0.35,0
						c0.86,0.06,1.49,0.25,2.18,0.43c1.33,0.38,2.61,0.8,3.88,1.27c2.52,0.95,5.02,1.94,7.47,3.02
						C846.06,533.45,850.9,535.73,855.64,538.25z"/>
				</g>
				<g>
					<path class="st54" d="M803.68,569l1-17.25c0.13-2.87,0.28-5.73,0.29-8.59c0-1.42,0-2.85-0.1-4.24
						c-0.05-0.69-0.12-1.38-0.25-2.01c-0.06-0.31-0.15-0.61-0.24-0.82c-0.04-0.11-0.1-0.17-0.09-0.16c0.01,0.01,0.04,0.03,0.11,0.07
						c0.04,0.03,0.12,0.02,0.1,0.03c-0.02-0.01-0.33,0.07-0.59,0.2c-0.27,0.13-0.56,0.29-0.84,0.47c-0.57,0.35-1.14,0.76-1.7,1.18
						c-1.12,0.85-2.21,1.77-3.29,2.7c-2.18,1.85-4.27,3.81-6.4,5.74l-12.63,11.79c3.66-4.46,7.5-8.78,11.54-12.91
						c2.01-2.08,4.09-4.08,6.23-6.05c1.08-0.98,2.19-1.92,3.35-2.83c0.59-0.45,1.18-0.89,1.83-1.31c0.32-0.21,0.66-0.41,1.04-0.59
						c0.39-0.17,0.76-0.38,1.47-0.4c0.16-0.01,0.42,0.03,0.63,0.12c0.25,0.1,0.41,0.24,0.55,0.38c0.25,0.27,0.39,0.52,0.48,0.75
						c0.19,0.45,0.29,0.85,0.37,1.25c0.15,0.78,0.21,1.53,0.26,2.27c0.08,1.48,0.09,2.94,0.04,4.4c-0.11,2.91-0.32,5.79-0.63,8.67
						C805.64,557.63,804.78,563.34,803.68,569z"/>
				</g>
				<g>
					<path class="st54" d="M761.26,527.65c5.87-1.47,11.74-2.92,17.57-4.45c2.9-0.81,5.82-1.57,8.6-2.58
						c0.69-0.26,1.38-0.51,2.03-0.81c0.64-0.27,1.31-0.66,1.59-0.94c0.07-0.05-0.01-0.02,0.02-0.02c0,0,0.01,0.01,0.01,0.01
						c-0.02,0.04-0.03,0.09-0.03,0.14c-0.01,0.13,0.03,0.08-0.05-0.02c-0.11-0.18-0.33-0.44-0.56-0.67
						c-0.49-0.48-1.05-0.94-1.63-1.38c-2.33-1.79-4.89-3.4-7.43-4.99c-2.54-1.61-5.14-3.13-7.73-4.69
						c-5.19-3.07-10.39-6.16-15.57-9.29c5.54,2.44,11,5.08,16.34,7.93c5.34,2.88,10.63,5.79,15.62,9.46
						c0.61,0.48,1.22,0.98,1.81,1.57c0.29,0.31,0.59,0.61,0.86,1.08c0.13,0.22,0.3,0.55,0.3,1.05c-0.01,0.14-0.03,0.29-0.07,0.42
						c-0.04,0.09-0.08,0.17-0.13,0.26c-0.09,0.15-0.22,0.37-0.31,0.44c-0.4,0.42-0.78,0.64-1.16,0.86c-0.37,0.21-0.74,0.38-1.1,0.54
						c-0.73,0.32-1.46,0.59-2.2,0.83c-2.94,0.95-5.88,1.67-8.85,2.31C773.26,525.99,767.28,526.94,761.26,527.65z"/>
				</g>
			</g>
			<g>
				<path class="st1" d="M741.11,491.59c1.52,0.96,2.82,2.13,4.06,3.36c1.23,1.25,2.4,2.55,3.36,4.06
					c-1.52-0.96-2.82-2.13-4.06-3.36C743.25,494.41,742.07,493.11,741.11,491.59z"/>
			</g>
			<g>
				<path class="st1" d="M749.6,475.69c1.52,0.96,2.82,2.13,4.06,3.36c1.23,1.25,2.4,2.55,3.36,4.06c-1.52-0.96-2.82-2.13-4.06-3.36
					C751.73,478.5,750.56,477.2,749.6,475.69z"/>
			</g>
			<g>
				<path class="st1" d="M754.9,468.26c1.52,0.96,2.82,2.13,4.06,3.36c1.23,1.25,2.4,2.55,3.36,4.06c-1.52-0.96-2.82-2.13-4.06-3.36
					C757.03,471.08,755.86,469.78,754.9,468.26z"/>
			</g>
			<g>
				<path class="st1" d="M744.3,483.11c1.52,0.96,2.82,2.13,4.06,3.36c1.23,1.25,2.4,2.55,3.36,4.06c-1.52-0.96-2.82-2.13-4.06-3.36
					C746.43,485.93,745.25,484.63,744.3,483.11z"/>
			</g>
			<g>
				<path class="st1" d="M846.09,566.88c1.52,0.96,2.82,2.13,4.06,3.36c1.23,1.25,2.4,2.55,3.36,4.06
					c-1.52-0.96-2.82-2.13-4.06-3.36C848.23,569.7,847.05,568.4,846.09,566.88z"/>
			</g>
			<g>
				<path class="st1" d="M853.52,561.58c1.52,0.96,2.82,2.13,4.06,3.36c1.23,1.25,2.4,2.55,3.36,4.06
					c-1.52-0.96-2.82-2.13-4.06-3.36C855.65,564.4,854.48,563.1,853.52,561.58z"/>
			</g>
			<g>
				<path class="st1" d="M859.88,555.22c1.52,0.96,2.82,2.13,4.06,3.36c1.23,1.25,2.4,2.55,3.36,4.06
					c-1.52-0.96-2.82-2.13-4.06-3.36C862.01,558.03,860.84,556.73,859.88,555.22z"/>
			</g>
			<g>
				<path class="st1" d="M865.18,546.74c1.52,0.96,2.82,2.13,4.06,3.36c1.23,1.25,2.4,2.55,3.36,4.06
					c-1.52-0.96-2.82-2.13-4.06-3.36C867.32,549.55,866.14,548.25,865.18,546.74z"/>
			</g>
			<g>
				<path class="st1" d="M839.73,572.19c1.52,0.96,2.82,2.13,4.06,3.36c1.23,1.25,2.4,2.55,3.36,4.06
					c-1.52-0.96-2.82-2.13-4.06-3.36C841.87,575,840.69,573.7,839.73,572.19z"/>
			</g>
			<g>
				<path class="st1" d="M832.31,576.43c1.52,0.96,2.82,2.13,4.06,3.36c1.23,1.25,2.4,2.55,3.36,4.06
					c-1.52-0.96-2.82-2.13-4.06-3.36C834.44,579.24,833.27,577.94,832.31,576.43z"/>
			</g>
			<g>
				<path class="st1" d="M824.89,579.61c1.52,0.96,2.82,2.13,4.06,3.36c1.23,1.25,2.4,2.55,3.36,4.06
					c-1.52-0.96-2.82-2.13-4.06-3.36C827.02,582.42,825.85,581.12,824.89,579.61z"/>
			</g>
			<g>
				<path class="st1" d="M816.4,581.73c1.52,0.96,2.82,2.13,4.06,3.36c1.23,1.25,2.4,2.55,3.36,4.06c-1.52-0.96-2.82-2.13-4.06-3.36
					C818.54,584.54,817.36,583.24,816.4,581.73z"/>
			</g>
			<g>
				<path class="st1" d="M806.86,583.85c1.52,0.96,2.82,2.13,4.06,3.36c1.23,1.25,2.4,2.55,3.36,4.06
					c-1.52-0.96-2.82-2.13-4.06-3.36C808.99,586.67,807.82,585.37,806.86,583.85z"/>
			</g>
			<g>
				<path class="st55" d="M760.66,508.41c0.97-6.72,3.24-13.26,6.7-19.11c3.45-5.85,8.08-11.02,13.52-15.11
					c5.44-4.09,11.67-7.16,18.28-8.89c6.6-1.74,13.56-2.16,20.36-1.24c6.79,0.94,13.41,3.2,19.35,6.67
					c5.94,3.47,11.21,8.11,15.37,13.62c4.14,5.52,7.2,11.86,8.91,18.55c1.73,6.69,2.1,13.73,1.14,20.58
					c-1.02,6.84-3.39,13.48-6.96,19.4c-3.55,5.93-8.29,11.13-13.83,15.24c-5.55,4.11-11.93,7.05-18.61,8.68
					c-6.68,1.64-13.67,1.92-20.45,0.88c-6.77-1.06-13.33-3.44-19.16-6.99c-5.84-3.54-10.94-8.26-14.99-13.73
					c-4.05-5.47-7.01-11.74-8.65-18.34C759.99,522.05,759.67,515.13,760.66,508.41z M760.66,508.41
					c-0.94,6.72-0.57,13.63,1.12,20.19c1.69,6.57,4.68,12.78,8.75,18.2c4.08,5.41,9.25,9.96,15.08,13.36
					c5.83,3.4,12.32,5.62,18.98,6.54c6.67,0.89,13.49,0.49,19.97-1.22c6.48-1.7,12.59-4.71,17.93-8.72
					c5.34-4.02,9.87-9.08,13.26-14.82c3.4-5.74,5.62-12.15,6.58-18.74c0.97-6.59,0.66-13.37-0.96-19.84
					c-1.61-6.47-4.52-12.62-8.49-17.99c-3.97-5.37-8.97-9.99-14.7-13.47c-5.72-3.49-12.15-5.82-18.79-6.86
					c-6.65-1.02-13.5-0.74-20.06,0.86c-6.55,1.6-12.81,4.49-18.26,8.51c-5.44,4.03-10.08,9.14-13.57,14.95
					C763.99,495.19,761.67,501.7,760.66,508.41z"/>
			</g>
			<circle class="st56" cx="812.16" cy="517.57" r="58.32"/>
			<g>
				<path class="st57" d="M749.64,545.36c2.06,4.02,4.49,7.79,7.16,11.36c2.68,3.56,5.61,6.92,8.87,9.94
					c3.21,3.06,6.67,5.87,10.41,8.28c0.94,0.59,1.83,1.28,2.82,1.8l2.91,1.66c0.95,0.61,1.98,1.04,2.99,1.55
					c1.01,0.49,2.02,1,3.02,1.53c-1.08-0.32-2.16-0.66-3.24-1.01c-1.08-0.36-2.17-0.69-3.2-1.17l-3.12-1.4
					c-0.53-0.22-1.03-0.49-1.52-0.78l-1.49-0.84c-2.03-1.05-3.86-2.43-5.75-3.73c-0.94-0.66-1.77-1.44-2.67-2.16l-1.32-1.1
					l-1.24-1.18c-0.8-0.81-1.66-1.57-2.42-2.43l-2.29-2.55l-2.1-2.7c-0.69-0.91-1.31-1.87-1.95-2.81
					C753.04,553.8,750.93,549.7,749.64,545.36z"/>
			</g>
			<g>
				<path class="st57" d="M819.8,451.46c6.55,0.68,12.94,2.65,18.95,5.36c6.03,2.71,11.63,6.36,16.61,10.73
					c4.94,4.41,9.2,9.57,12.59,15.24c0.8,1.44,1.66,2.86,2.36,4.36c0.36,0.74,0.74,1.47,1.09,2.22l0.97,2.27
					c0.68,1.5,1.15,3.09,1.73,4.63c0.53,1.56,0.96,3.15,1.42,4.72c-2.07-6.24-4.78-12.25-8.23-17.8
					c-3.48-5.52-7.67-10.61-12.59-14.9c-2.43-2.17-5.02-4.17-7.74-5.97c-2.72-1.8-5.59-3.37-8.53-4.81
					c-2.94-1.43-5.98-2.66-9.1-3.66C826.23,452.81,823.05,451.98,819.8,451.46z"/>
			</g>
		</g>
		<path class="st33" d="M195.99,454.21l-7.19-7.19c0,0-25.91-9.23-39.68-6.16"/>
		<g>
			<path class="st58" d="M380.97,405.9c0,0,4.11-14.39,0-16.44c-4.11-2.06-22.61-4.11-29.8,2.06s-15.42,15.42-2.06,19.53"/>
			<path class="st59" d="M380.97,405.9c0.7-3.03,1.29-6.1,1.49-9.19c0.1-1.54,0.12-3.1-0.19-4.57c-0.16-0.72-0.43-1.44-0.88-1.94
				c-0.25-0.24-0.48-0.41-0.86-0.54c-0.34-0.14-0.69-0.28-1.06-0.37c-2.94-0.82-6.05-1.16-9.12-1.34c-3.08-0.16-6.18-0.08-9.23,0.35
				c-1.52,0.2-3.02,0.52-4.49,0.94c-0.73,0.22-1.43,0.51-2.14,0.78l-1.01,0.52c-0.34,0.17-0.68,0.33-0.97,0.57
				c-1.24,0.8-2.39,1.92-3.52,2.95c-1.12,1.06-2.21,2.16-3.22,3.32c-1,1.17-1.93,2.4-2.6,3.76c-0.69,1.34-1.1,2.87-0.81,4.32
				c0.26,1.48,1.34,2.7,2.59,3.57c1.26,0.89,2.71,1.5,4.17,2.02c-1.5-0.42-2.99-0.94-4.32-1.8c-1.32-0.83-2.54-2.06-2.92-3.68
				c-0.38-1.61,0.04-3.28,0.72-4.71c0.67-1.45,1.6-2.75,2.58-3.98c0.99-1.22,2.07-2.37,3.21-3.45c1.16-1.07,2.24-2.16,3.61-3.08
				c0.32-0.26,0.67-0.44,1.03-0.62l1.07-0.56c0.74-0.29,1.48-0.6,2.24-0.84c1.52-0.45,3.07-0.8,4.63-1.01
				c3.13-0.41,6.28-0.46,9.42-0.27c1.57,0.09,3.13,0.25,4.68,0.49c1.55,0.23,3.1,0.53,4.62,1.03c0.38,0.11,0.76,0.27,1.13,0.43
				c0.37,0.12,0.78,0.42,1.07,0.73c0.57,0.68,0.83,1.49,0.98,2.28c0.29,1.59,0.22,3.18,0.06,4.74
				C382.58,399.87,381.89,402.93,380.97,405.9z"/>
		</g>
		<g>
			<path class="st60" d="M341.92,404.88c2.91-1.1,5.98-1.75,9.08-2.16c3.1-0.44,6.25-0.4,9.35-0.33c3.11,0.1,6.21,0.25,9.3,0.51
				c3.1,0.25,6.19,0.53,9.27,0.96c-1.55,0-3.11-0.05-4.66-0.06l-4.65-0.13l-9.29-0.28c-3.1-0.1-6.17-0.16-9.24,0.09
				c-1.54,0.11-3.07,0.29-4.6,0.53C344.95,404.22,343.43,404.52,341.92,404.88z"/>
		</g>
		<path class="st26" d="M358.19,423.04"/>
		<path class="st2" d="M357.94,424.06L725,389l-22.77-3.37c-2.81-0.42-5.66-0.47-8.48-0.16L571,399l-48.89,6.17L360,420
			L357.94,424.06"/>
		<path class="st28" d="M285.4,464.45c0,0,22.61-2.06,27.75-1.03c5.14,1.03,63.72,49.33,96.6,54.47s162.38-11.3,162.38-11.3"/>
		<g>
			<path class="st61" d="M579.32,400.76c0.81,1.64,1.17,3.46,1.47,5.26c0.25,1.81,0.4,3.64,0.45,5.47c0.11,3.66-0.1,7.32-0.44,10.96
				c-0.19,1.82-0.41,3.63-0.69,5.44c-0.24,1.81-0.58,3.61-0.89,5.41c-0.74,3.58-1.64,7.19-2.82,10.64
				c-2.19,6.99-4.98,13.74-7.69,20.51c-2.78,6.74-5.65,13.45-8.59,20.12c-6.01,13.28-12.16,26.5-18.57,39.59
				c-3.21,6.54-6.45,13.07-9.73,19.57c-3.34,6.48-6.63,12.98-10.09,19.39l18.44-39.63c6.11-13.22,12.27-26.42,18.13-39.74
				c5.96-13.27,11.81-26.63,16.65-40.3c1.27-3.41,2.22-6.87,3.04-10.39c0.73-3.55,1.38-7.13,1.85-10.73
				c0.49-3.59,0.84-7.21,0.88-10.84c0.03-1.81-0.05-3.63-0.22-5.43C580.29,404.27,580.04,402.44,579.32,400.76z"/>
		</g>
		<path class="st14" d="M324,430c0,0,1,2,4,2l24-16l6.7,0.79L355,414l-5.87-2.57L324,430z"/>
		<g>
			<path class="st62" d="M327.37,432.55c2.54-1.9,5.09-3.79,7.66-5.66c2.58-1.85,5.17-3.68,7.79-5.48c2.64-1.78,5.25-3.57,8.08-5.11
				c0.39-0.17,0.68-0.38,1.25-0.47c0.44-0.01,0.83,0.02,1.23,0.05c0.8,0.07,1.59,0.16,2.38,0.26c1.58,0.2,3.15,0.44,4.72,0.7
				l-0.15,0.71c-1.34-0.35-2.66-0.75-3.96-1.26c-0.65-0.29-1.29-0.49-1.91-1.11c-0.07-0.08-0.15-0.2-0.19-0.36
				c-0.05-0.16-0.01-0.38,0.08-0.5c0.18-0.27,0.38-0.34,0.56-0.43c0.37-0.15,0.68-0.22,1.02-0.33c2.65-0.74,5.31-1.38,7.98-2.01
				c5.33-1.28,10.68-2.46,16.03-3.61l-15.9,4.14c-2.64,0.7-5.3,1.38-7.92,2.12c-0.31,0.1-0.67,0.19-0.93,0.3
				c-0.12,0.05-0.25,0.14-0.25,0.17c0-0.01-0.02-0.04,0.06,0.07c0.35,0.37,1.04,0.65,1.64,0.89c1.25,0.48,2.57,0.87,3.87,1.2
				l-0.15,0.71c-1.56-0.25-3.13-0.48-4.69-0.7c-0.78-0.1-1.57-0.2-2.35-0.27c-0.38-0.03-0.79-0.07-1.14-0.06
				c-0.22,0.03-0.64,0.23-0.96,0.38c-2.76,1.46-5.4,3.27-8.05,4.99c-2.65,1.74-5.28,3.51-7.91,5.29L327.37,432.55z"/>
		</g>
		<g>
			<path class="st63" d="M298.68,421.7l49.12-29.15c4.1-2.41,8.16-4.9,12.39-7.12c4.2-2.25,8.46-4.37,12.73-6.49
				c8.56-4.19,17.22-8.14,25.98-11.89c8.76-3.74,17.6-7.3,26.59-10.47c8.98-3.18,18.05-6.14,27.34-8.35
				c2.3-0.63,4.65-1.07,6.99-1.54l3.51-0.71c1.18-0.2,2.36-0.34,3.55-0.51c2.37-0.33,4.73-0.71,7.11-0.86
				c2.38-0.19,4.75-0.46,7.13-0.56c9.52-0.64,19.05-0.74,28.58-0.61c38.12,0.75,76.05,5.24,113.66,11.12
				c37.59,6.11,75.04,13.11,112.18,21.55c-18.6-4.09-37.29-7.73-56.01-11.17c-18.72-3.48-37.47-6.74-56.27-9.72
				c-37.61-5.77-75.52-10.14-113.57-10.78c-9.51-0.16-19.02-0.08-28.51,0.53c-2.38,0.09-4.74,0.36-7.11,0.54
				c-2.38,0.15-4.72,0.51-7.07,0.83c-1.17,0.17-2.35,0.31-3.52,0.5l-3.49,0.7c-2.33,0.47-4.66,0.89-6.96,1.52
				c-9.25,2.17-18.31,5.1-27.28,8.25c-8.98,3.14-17.82,6.67-26.58,10.38C363.74,381.88,331.77,402.92,298.68,421.7z"/>
		</g>
		<polygon class="st64" points="425.34,413.6 481.77,357.94 515,357 469.26,409.77 		"/>
		<polygon class="st65" points="539.04,360.32 509.77,406.28 530.02,403.89 550.45,360.83 		"/>
		<g>
			<path class="st27" d="M381.49,389.97c5.31-3.35,10.81-6.39,16.39-9.27c5.57-2.91,11.26-5.58,17.02-8.12
				c2.89-1.24,5.79-2.46,8.74-3.57c2.92-1.18,5.9-2.2,8.87-3.24c2.97-1.05,6-1.92,9-2.88l4.57-1.23c1.53-0.4,3.04-0.85,4.59-1.16
				c3.09-0.67,6.16-1.43,9.29-1.88l4.69-0.76l4.7-0.53c6.27-0.72,12.57-1.07,18.87-1.33c12.6-0.4,25.21,0.07,37.76,0.97
				c25.1,1.94,49.99,5.74,74.66,10.45c12.33,2.38,24.65,4.87,36.83,7.98c6.08,1.61,12.13,3.33,18.08,5.34
				c1.48,0.52,2.98,1.01,4.44,1.58l2.2,0.84l2.18,0.91c1.44,0.63,2.87,1.28,4.26,2.02c1.38,0.74,2.78,1.49,3.95,2.55
				c-1.21-1-2.65-1.67-4.05-2.35c-1.41-0.67-2.87-1.25-4.33-1.8l-2.2-0.82l-2.22-0.75c-1.48-0.52-2.98-0.95-4.48-1.42
				c-6-1.79-12.08-3.29-18.19-4.67c-12.21-2.81-24.53-5.04-36.9-7.14c-12.36-2.05-24.73-4.08-37.15-5.72
				c-12.41-1.68-24.85-3.1-37.32-4.01c-12.47-0.96-24.97-1.43-37.45-1.13c-12.48,0.32-24.95,1.33-37.13,3.9
				c-1.53,0.27-3.04,0.68-4.55,1.05l-4.54,1.12c-2.99,0.89-6.01,1.68-8.98,2.66c-2.97,0.98-5.95,1.92-8.87,3.03
				c-1.47,0.54-2.95,1.05-4.4,1.62l-4.37,1.72C403.82,378.53,392.47,383.92,381.49,389.97z"/>
		</g>
	</g>
</g>
</svg>
